<svg width="46" height="46" viewBox="0 0 46 46" fill="none" xmlns="http://www.w3.org/2000/svg">
<path d="M22.8674 45.6133C35.4968 45.6133 45.7349 35.4024 45.7349 22.8067C45.7349 10.2109 35.4968 0 22.8674 0C10.2381 0 0 10.2109 0 22.8067C0 35.4024 10.2381 45.6133 22.8674 45.6133Z" fill="#3A4C5A"/>
<path d="M22.8675 11.0344C26.7128 11.0344 27.1668 11.048 28.6831 11.1159C30.086 11.1793 30.8487 11.4147 31.3571 11.6094C32.029 11.872 32.5103 12.1799 33.0142 12.6825C33.5181 13.1851 33.8314 13.665 34.0902 14.3352C34.2854 14.8423 34.5214 15.603 34.585 17.0021C34.6531 18.5144 34.6667 18.9717 34.6667 22.8022C34.6667 26.6373 34.6531 27.0901 34.585 28.6024C34.5214 30.0015 34.2854 30.7621 34.0902 31.2692C33.8268 31.9394 33.5181 32.4193 33.0142 32.9219C32.5103 33.4245 32.029 33.7369 31.3571 33.995C30.8487 34.1897 30.086 34.4251 28.6831 34.4885C27.1668 34.5564 26.7083 34.57 22.8675 34.57C19.0222 34.57 18.5682 34.5564 17.0519 34.4885C15.6491 34.4251 14.8864 34.1897 14.3779 33.995C13.706 33.7324 13.2248 33.4245 12.7209 32.9219C12.2169 32.4193 11.9037 31.9394 11.6449 31.2692C11.4497 30.7621 11.2136 30.0015 11.1501 28.6024C11.082 27.0901 11.0683 26.6327 11.0683 22.8022C11.0683 18.9671 11.082 18.5144 11.1501 17.0021C11.2136 15.603 11.4497 14.8423 11.6449 14.3352C11.9082 13.665 12.2169 13.1851 12.7209 12.6825C13.2248 12.1799 13.706 11.8675 14.3779 11.6094C14.8864 11.4147 15.6491 11.1793 17.0519 11.1159C18.5682 11.048 19.0222 11.0344 22.8675 11.0344ZM22.8675 8.44446C18.9587 8.44446 18.4684 8.46257 16.9293 8.53049C15.3949 8.59841 14.3507 8.84291 13.4336 9.19608C12.4848 9.56283 11.6858 10.0518 10.8822 10.8533C10.0832 11.6502 9.58834 12.4516 9.2206 13.3979C8.86649 14.3125 8.62134 15.3539 8.55324 16.8843C8.48514 18.4147 8.46698 18.9037 8.46698 22.8067C8.46698 26.7052 8.48514 27.1942 8.55324 28.7291C8.62134 30.2595 8.86649 31.3009 9.2206 32.2156C9.58834 33.1619 10.0786 33.9588 10.8822 34.7602C11.6812 35.5571 12.4848 36.0506 13.4336 36.4174C14.3507 36.7706 15.3949 37.0151 16.9293 37.083C18.4638 37.1509 18.9541 37.169 22.8675 37.169C26.7764 37.169 27.2667 37.1509 28.8057 37.083C30.3402 37.0151 31.3844 36.7706 32.3014 36.4174C33.2503 36.0506 34.0493 35.5616 34.8529 34.7602C35.6519 33.9633 36.1467 33.1619 36.5145 32.2156C36.8686 31.3009 37.1137 30.2595 37.1818 28.7291C37.2499 27.1987 37.2681 26.7097 37.2681 22.8067C37.2681 18.9037 37.2499 18.4193 37.1818 16.8843C37.1137 15.3539 36.8686 14.3125 36.5145 13.3979C36.1467 12.4516 35.6564 11.6547 34.8529 10.8533C34.0538 10.0564 33.2503 9.56283 32.3014 9.19608C31.3844 8.84291 30.3402 8.59841 28.8057 8.53049C27.2667 8.46257 26.7764 8.44446 22.8675 8.44446Z" fill="white"/>
<path d="M22.8673 15.4309C18.7859 15.4309 15.4718 18.7317 15.4718 22.8067C15.4718 26.8818 18.7814 30.1826 22.8673 30.1826C26.9487 30.1826 30.2583 26.8818 30.2583 22.8067C30.2583 18.7317 26.9487 15.4309 22.8673 15.4309ZM22.8673 27.5926C20.216 27.5926 18.0686 25.451 18.0686 22.8067C18.0686 20.1625 20.216 18.0208 22.8673 18.0208C25.5186 18.0208 27.666 20.1625 27.666 22.8067C27.666 25.451 25.5186 27.5926 22.8673 27.5926Z" fill="white"/>
<path d="M30.5535 16.8663C31.5088 16.8663 32.2832 16.0939 32.2832 15.1412C32.2832 14.1884 31.5088 13.4161 30.5535 13.4161C29.5982 13.4161 28.8238 14.1884 28.8238 15.1412C28.8238 16.0939 29.5982 16.8663 30.5535 16.8663Z" fill="white"/>
</svg>
