<svg width="46" height="46" viewBox="0 0 46 46" fill="none" xmlns="http://www.w3.org/2000/svg">
<path d="M23.1326 45.6133C35.7619 45.6133 46 35.4024 46 22.8067C46 10.2109 35.7619 0 23.1326 0C10.5032 0 0.265137 10.2109 0.265137 22.8067C0.265137 35.4024 10.5032 45.6133 23.1326 45.6133Z" fill="#3A4C5A"/>
<path d="M34.2644 13.5428C34.1782 13.2892 34.0737 13.2168 33.9103 13.1579C33.5517 13.0221 32.9524 13.2258 32.9524 13.2258C32.9524 13.2258 11.5831 20.8869 10.3619 21.7336C10.0986 21.9147 10.0123 22.0234 9.96694 22.1456C9.75357 22.7478 10.4118 23.015 10.4118 23.015L15.9187 24.8035C15.9187 24.8035 16.123 24.8352 16.1957 24.7854C17.4487 23.9975 28.8029 16.8436 29.4567 16.6036C29.5611 16.5719 29.6383 16.6081 29.6156 16.6805C29.3523 17.5997 19.4916 26.3384 19.4916 26.3384C19.4916 26.3384 19.4553 26.3837 19.4281 26.438L19.4144 26.429L18.9014 31.8759C18.9014 31.8759 18.6881 33.5467 20.3588 31.8759C21.5391 30.6987 22.6832 29.7116 23.2552 29.2317C25.1483 30.5357 27.1867 31.9801 28.0675 32.7317C28.5078 33.112 28.8801 33.1709 29.1843 33.1618C30.0196 33.1302 30.2512 32.2155 30.2512 32.2155C30.2512 32.2155 34.1464 16.5855 34.2735 14.4891C34.2871 14.2853 34.3053 14.154 34.3053 14.0137C34.3144 13.828 34.2962 13.6333 34.2644 13.5428Z" fill="white"/>
</svg>
