<svg width="46" height="46" viewBox="0 0 46 46" fill="none" xmlns="http://www.w3.org/2000/svg">
<path d="M23 45.6133C35.6294 45.6133 45.8675 35.4024 45.8675 22.8067C45.8675 10.2109 35.6294 0 23 0C10.3707 0 0.132568 10.2109 0.132568 22.8067C0.132568 35.4024 10.3707 45.6133 23 45.6133Z" fill="#3A4C5A"/>
<g clip-path="url(#clip0_1015_123)">
<path d="M30.8048 24.0613C36.6644 19.9968 37.2905 14.1038 37.2905 14.1038C37.2905 14.1038 33.6186 14.1038 32.1189 14.1038C30.6115 20.2083 26.3289 21.6532 25.0148 21.9586V14.0529H19.8973C19.8973 14.0529 19.8973 23.4504 19.8973 27.6598C12.3912 25.7333 12.7468 14.0529 12.7468 14.0529H7.52881C7.52881 35.7848 25.0186 33.827 25.0186 33.827V27.0333C26.3676 27.1116 30.913 27.8556 33.0388 34.0227C34.5385 34.0227 38.5931 34.0227 38.5931 34.0227C38.5931 34.0227 37.3446 28.0239 30.8048 24.0613Z" fill="white"/>
</g>
<defs>
<clipPath id="clip0_1015_123">
<rect width="31.0643" height="19.9699" fill="white" transform="translate(7.52881 14.0529)"/>
</clipPath>
</defs>
</svg>
