<svg width="47" height="46" viewBox="0 0 47 46" fill="none" xmlns="http://www.w3.org/2000/svg">
<path d="M23.4337 45.6133C36.0631 45.6133 46.3012 35.4024 46.3012 22.8067C46.3012 10.2109 36.0631 0 23.4337 0C10.8044 0 0.566284 10.2109 0.566284 22.8067C0.566284 35.4024 10.8044 45.6133 23.4337 45.6133Z" fill="#3A4C5A"/>
<path d="M38.0386 15.4852C37.689 14.1767 36.654 13.1443 35.3419 12.7957C32.963 12.1618 23.4292 12.1618 23.4292 12.1618C23.4292 12.1618 13.8955 12.1618 11.5165 12.7957C10.2045 13.1443 9.16942 14.1767 8.81985 15.4852C8.18426 17.8578 8.18427 22.8022 8.18427 22.8022C8.18427 22.8022 8.18426 27.7511 8.81985 30.1192C9.16942 31.4277 10.2045 32.4555 11.5165 32.8087C13.8955 33.4426 23.4292 33.4426 23.4292 33.4426C23.4292 33.4426 32.963 33.4426 35.3419 32.8087C36.654 32.4601 37.689 31.4277 38.0386 30.1192C38.6742 27.7466 38.6742 22.8022 38.6742 22.8022C38.6742 22.8022 38.6742 17.8578 38.0386 15.4852ZM20.383 27.3662V18.2427L28.3051 22.8022L20.383 27.3662Z" fill="white"/>
</svg>
