<svg width="63" height="293" viewBox="0 0 63 293" fill="none" xmlns="http://www.w3.org/2000/svg">
<g clip-path="url(#clip0_1014_161)">
<path d="M58.396 292.45C57.9154 292.446 57.4367 292.203 57.1194 291.8C56.5643 291.076 56.7321 290.118 57.3773 289.563C58.1026 289.009 59.0626 289.177 59.6183 289.821L59.6978 289.902C60.2529 290.626 60.0851 291.584 59.3598 292.138C59.1176 292.376 58.7965 292.453 58.396 292.45ZM53.5599 286.015C53.0793 286.012 52.6006 285.768 52.2833 285.366L53.5725 284.416L52.2038 285.285C51.6487 284.561 51.8165 283.603 52.5418 283.049C53.2672 282.495 54.2272 282.662 54.7822 283.386L54.8617 283.467C55.3367 284.19 55.249 285.149 54.5237 285.703C54.2821 285.861 53.9605 286.018 53.5599 286.015ZM48.9661 279.343C48.4854 279.339 48.0067 279.095 47.6894 278.693L47.6099 278.612C47.135 277.889 47.3033 276.851 48.1082 276.377C48.8329 275.903 49.873 276.071 50.3473 276.875C50.8223 277.598 50.6539 278.636 49.9292 279.11C49.6075 279.268 49.2865 279.345 48.9661 279.343ZM44.4529 272.591C43.9723 272.587 43.4935 272.343 43.1769 271.861L43.0974 271.78C42.6224 271.057 42.8709 270.02 43.5956 269.545C44.3203 269.071 45.3598 269.319 45.8348 270.043C46.3098 270.766 46.0613 271.804 45.3366 272.278C45.095 272.436 44.7733 272.593 44.4529 272.591ZM40.2614 265.681C39.7007 265.677 39.2219 265.433 38.9053 264.951L38.8258 264.87C38.3515 264.067 38.5993 263.109 39.4035 262.716C40.2083 262.243 41.1677 262.49 41.5619 263.293C42.0369 264.016 41.7884 265.054 41.0637 265.528C40.8228 265.606 40.5818 265.684 40.2614 265.681ZM36.1507 258.693C35.5899 258.688 35.1112 258.444 34.7952 257.882L34.7157 257.802C34.3215 256.999 34.5693 256.041 35.3735 255.648C36.1777 255.254 37.1371 255.502 37.5313 256.305C38.0056 257.108 37.6777 258.065 36.953 258.539C36.712 258.617 36.4711 258.695 36.1507 258.693ZM32.361 251.626C31.8002 251.622 31.242 251.298 30.926 250.736C30.5318 249.933 30.7796 248.975 31.5838 248.582C32.388 248.188 33.3474 248.436 33.7416 249.238L33.8211 249.319C34.2153 250.122 33.9675 251.079 33.1633 251.473C32.8422 251.55 32.6013 251.628 32.361 251.626ZM28.6526 244.401C28.0919 244.397 27.5337 244.072 27.2978 243.511L27.2183 243.43C26.8241 242.627 27.152 241.671 27.9562 241.277C28.7604 240.884 29.7191 241.211 30.1134 242.014C30.5076 242.816 30.1797 243.773 29.3755 244.167C29.1339 244.325 28.893 244.403 28.6526 244.401ZM25.1852 237.097C24.5444 237.092 23.9862 236.768 23.7509 236.127L23.7515 236.047C23.3573 235.244 23.7654 234.288 24.5695 233.894C25.3737 233.501 26.3318 233.908 26.7261 234.711L26.7255 234.791C27.1197 235.593 26.7116 236.55 25.9074 236.943C25.6659 237.101 25.4256 237.099 25.1852 237.097ZM21.9588 229.716C21.318 229.711 20.7604 229.307 20.5245 228.745L21.9714 228.117L20.445 228.664C20.1308 227.862 20.4588 226.906 21.2624 226.592C22.0659 226.278 23.0247 226.606 23.3388 227.408L23.3382 227.488C23.6523 228.29 23.3243 229.247 22.4407 229.56C22.3599 229.639 22.119 229.717 21.9588 229.716ZM18.8932 222.256C18.2523 222.251 17.6947 221.846 17.3794 221.204C17.0652 220.402 17.4733 219.446 18.2768 219.132C19.0804 218.819 20.0385 219.226 20.3526 220.028L20.352 220.108C20.6662 220.91 20.2581 221.867 19.4545 222.18C19.2943 222.179 19.0534 222.257 18.8932 222.256ZM16.0691 214.637C15.4283 214.632 14.7906 214.227 14.5553 213.586L14.5559 213.506C14.2418 212.704 14.6499 211.748 15.5335 211.435C16.3371 211.121 17.2952 211.529 17.6087 212.411L17.6081 212.491C17.9222 213.293 17.434 214.248 16.6305 214.562C16.4696 214.64 16.2293 214.639 16.0691 214.637ZM13.4854 207.021C12.8446 207.016 12.2069 206.611 11.9722 205.89L11.9728 205.81C11.6587 205.008 12.1469 204.052 13.0299 203.819C13.8335 203.505 14.7909 203.993 15.0243 204.874L15.0237 204.954C15.2571 205.835 14.8497 206.712 13.9666 206.945C13.8064 206.944 13.6456 207.022 13.4854 207.021ZM11.1432 199.247C10.4223 199.241 9.78522 198.756 9.63004 198.115L9.63067 198.035C9.39727 197.154 9.88481 196.278 10.7678 196.045C11.6509 195.812 12.5283 196.299 12.7617 197.18L12.761 197.26C12.9944 198.142 12.5069 199.017 11.6238 199.25C11.4636 199.249 11.3034 199.248 11.1432 199.247ZM9.1221 191.395C8.40116 191.389 7.7641 190.904 7.60955 190.183L7.61018 190.103C7.37678 189.222 7.94442 188.347 8.82683 188.194C9.70986 187.961 10.5866 188.528 10.7399 189.408C10.9733 190.29 10.4057 191.165 9.60273 191.398C9.36242 191.397 9.20221 191.395 9.1221 191.395ZM7.3413 183.545C6.62036 183.539 5.90319 183.054 5.74927 182.253L7.35387 181.946L5.7499 182.173C5.5966 181.292 6.08351 180.496 6.96654 180.264C7.84895 180.111 8.64622 180.597 8.87962 181.478L8.87899 181.558C9.03229 182.439 8.46527 183.234 7.66234 183.467C7.50151 183.546 7.4214 183.545 7.3413 183.545ZM5.80143 175.617C5.08049 175.611 4.36333 175.126 4.28951 174.326L4.29014 174.246C4.13684 173.365 4.70386 172.57 5.58626 172.417C6.46867 172.264 7.26531 172.83 7.4186 173.71C7.5719 174.591 7.00425 175.466 6.12185 175.619C5.96164 175.618 5.88154 175.617 5.80143 175.617ZM4.58261 167.611C3.78157 167.605 3.14514 167.04 2.99121 166.239L2.99184 166.16C2.91865 165.279 3.48567 164.484 4.36744 164.411C5.24922 164.338 6.04586 164.904 6.11905 165.784C6.27235 166.665 5.62523 167.46 4.74282 167.613C4.74282 167.613 4.66272 167.612 4.58261 167.611ZM3.68421 159.608C2.88317 159.602 2.16726 158.957 2.09344 158.157L2.09407 158.077C2.02088 157.197 2.668 156.402 3.54977 156.329C4.43155 156.256 5.22756 156.902 5.30076 157.782L5.30013 157.862C5.37332 158.742 4.7262 159.537 3.84442 159.61C3.76432 159.609 3.76432 159.609 3.68421 159.608ZM3.10623 151.608C2.22508 151.601 1.58927 150.956 1.51608 150.076L3.1188 150.009L1.51671 149.996C1.44352 149.116 2.09064 148.322 2.97179 148.329C3.85357 148.256 4.64958 148.902 4.64267 149.781L4.64204 149.861C4.71523 150.741 3.98863 151.455 3.10686 151.528C3.10623 151.608 3.10623 151.608 3.10623 151.608ZM2.76981 143.45C1.88867 143.443 1.17276 142.797 1.17967 141.918L1.1803 141.838C1.18721 140.958 1.91381 140.244 2.79496 140.251C3.6761 140.258 4.39139 140.984 4.38447 141.863C4.37819 142.663 3.73107 143.457 2.76981 143.45ZM2.83329 135.374C1.95215 135.367 1.23686 134.642 1.24378 133.763L1.24441 133.683C1.25132 132.803 1.97792 132.089 2.93854 132.177C3.81969 132.184 4.53434 132.989 4.44732 133.868C4.44104 134.667 3.71444 135.381 2.83329 135.374ZM3.21719 127.301L3.13709 127.301C2.25657 127.214 1.62139 126.489 1.6283 125.61L1.62893 125.53C1.71595 124.651 2.44192 124.017 3.32306 124.024C4.20358 124.111 4.83876 124.835 4.83185 125.715C4.7442 126.674 4.01823 127.308 3.21719 127.301ZM3.92088 119.311C3.84077 119.31 3.84077 119.31 3.76067 119.31C2.88015 119.223 2.2456 118.418 2.33262 117.54L2.33324 117.46C2.42026 116.581 3.22633 115.947 4.10685 116.034C4.98737 116.121 5.62192 116.926 5.5349 117.805L5.53428 117.884C5.44789 118.683 4.72192 119.317 3.92088 119.311ZM5.02571 111.244C4.94561 111.243 4.8655 111.243 4.7854 111.242C3.90551 111.075 3.27033 110.351 3.43745 109.472L3.43808 109.392C3.6052 108.514 4.41065 107.961 5.29116 108.048C6.17106 108.215 6.7255 109.018 6.63848 109.897C6.47199 110.696 5.74665 111.25 5.02571 111.244ZM6.3696 103.339C6.2895 103.338 6.12929 103.337 6.04919 103.336C5.16929 103.169 4.61548 102.285 4.78197 101.487L6.38154 101.819L4.7826 101.407C4.94972 100.529 5.75517 99.9755 6.63506 100.142C7.51495 100.309 8.06939 101.113 7.90227 101.991L7.90164 102.071C7.81525 102.87 7.17065 103.345 6.3696 103.339ZM8.11402 95.4364C7.95381 95.4351 7.8737 95.4345 7.71412 95.3533C6.83486 95.1065 6.36052 94.3032 6.52764 93.425C6.69476 92.5467 7.58031 91.994 8.45957 92.2408C9.33946 92.4076 9.89328 93.2915 9.64605 94.1691L9.64543 94.2491C9.47956 94.9674 8.83495 95.4421 8.11402 95.4364ZM10.1782 87.6167C10.018 87.6154 9.93791 87.6148 9.77832 87.5336C8.89906 87.2868 8.42472 86.4835 8.67195 85.6059L8.67258 85.5259C8.9198 84.6483 9.80472 84.1755 10.684 84.4223C11.5632 84.6691 12.037 85.5524 11.7897 86.43C11.5438 87.1477 10.8992 87.6223 10.1782 87.6167ZM12.6417 79.96C12.4815 79.9588 12.3213 79.9575 12.1617 79.8763C11.2824 79.6295 10.8894 78.6669 11.136 77.8693L11.1367 77.7893C11.3839 76.9117 12.3483 76.5195 13.1475 76.7656C14.0267 77.0124 14.4197 77.975 14.1731 78.7727L14.1725 78.8526C13.9265 79.5703 13.2825 79.965 12.6417 79.96ZM15.3448 72.3852C15.1846 72.3839 14.9443 72.382 14.7847 72.3008C13.9862 71.9747 13.5125 71.0914 13.8398 70.2145L15.3574 70.7861L13.9206 70.1352C14.2473 69.3381 15.1322 68.8653 16.0108 69.1921C16.8093 69.5182 17.2831 70.4015 16.9557 71.2784L16.9551 71.3584C16.6296 71.9955 15.9857 72.3902 15.3448 72.3852ZM18.3684 64.8129C18.2082 64.8116 17.9679 64.8097 17.8083 64.7285C17.0098 64.4024 16.6168 63.4398 16.9435 62.6428L16.9441 62.5628C17.2708 61.7658 18.2352 61.3736 19.0338 61.6997C19.8323 62.0258 20.2253 62.9884 19.8986 63.7855C19.5731 64.4226 19.0092 64.8179 18.3684 64.8129ZM21.7105 57.483C21.4702 57.4811 21.2305 57.3992 21.0709 57.318C20.273 56.912 19.9601 55.95 20.2869 55.153L20.2875 55.073C20.6943 54.2766 21.5786 53.8838 22.3765 54.2899C23.1744 54.6959 23.568 55.5786 23.1612 56.375L23.0804 56.4543C22.8345 57.172 22.2712 57.4874 21.7105 57.483ZM25.2923 50.2349C25.052 50.233 24.8123 50.1512 24.5726 50.0693C23.7747 49.6632 23.4618 48.7013 23.8686 47.9049L23.9494 47.8256C24.3562 47.0292 25.3193 46.7969 26.1172 47.2029C26.9151 47.609 27.1479 48.5703 26.7411 49.3667C26.4964 49.9245 25.853 50.2393 25.2923 50.2349ZM29.1932 43.1492C28.9529 43.1473 28.7132 43.0655 28.4736 42.9837C27.6756 42.5776 27.4429 41.6163 27.8497 40.8199L27.9304 40.7405C28.4173 39.9448 29.3805 39.7125 30.0976 40.1979C30.8949 40.6839 31.1277 41.6452 30.6414 42.361C30.3172 42.8382 29.754 43.1536 29.1932 43.1492ZM33.3332 36.2254C33.0128 36.2229 32.7731 36.141 32.454 35.9786C31.7368 35.4932 31.504 34.5319 31.9909 33.7361L31.9916 33.6561C32.4785 32.8604 33.4416 32.6281 34.1588 33.1135C34.876 33.5989 35.1888 34.5608 34.7025 35.2766L34.6218 35.356C34.3765 35.9937 33.894 36.2298 33.3332 36.2254ZM37.7123 29.4633C37.3919 29.4608 37.0721 29.3783 36.833 29.2165C36.1159 28.7311 35.8837 27.6898 36.37 26.974L36.3706 26.8941C36.8569 26.1783 37.82 25.946 38.6173 26.432C39.3345 26.9174 39.5673 27.8787 39.0804 28.6745L38.9996 28.7538C38.7555 29.2316 38.273 29.4677 37.7123 29.4633ZM42.331 22.7831C42.0106 22.7806 41.6908 22.6981 41.4524 22.4563C40.7352 21.971 40.5826 21.0103 41.0688 20.2944L41.1496 20.2151C41.716 19.4999 42.6785 19.3476 43.395 19.9129C44.1122 20.3983 44.2642 21.439 43.6978 22.1542C43.3743 22.5514 42.8918 22.7875 42.331 22.7831ZM47.1882 16.3446C46.8678 16.3421 46.548 16.2596 46.2295 16.0172C45.5129 15.4519 45.3603 14.4912 45.9266 13.776L46.0074 13.6967C46.5738 12.9815 47.5356 12.9091 48.2528 13.3945C48.9694 13.9599 49.0419 14.9199 48.5556 15.6357C48.1513 16.1123 47.6688 16.3484 47.1882 16.3446ZM52.205 9.98736C51.8845 9.98485 51.4846 9.90174 51.2462 9.65999C50.5297 9.09465 50.4571 8.13458 51.0235 7.4194L51.1042 7.34008C51.6706 6.6249 52.7126 6.55313 53.349 7.11785C54.0656 7.68319 54.1375 8.72322 53.5718 9.35844C53.1675 9.83501 52.6856 9.99114 52.205 9.98736Z" fill="white"/>
<path d="M59.6358 12.4446L57.6326 12.5088L57.2293 2.67069L47.4471 3.79317L47.2225 1.79244L59.1694 0.447095L59.6358 12.4446Z" fill="white"/>
</g>
<defs>
<clipPath id="clip0_1014_161">
<rect width="60" height="292" fill="white" transform="translate(2.29529) rotate(0.450386)"/>
</clipPath>
</defs>
</svg>
