<svg width="55" height="268" viewBox="0 0 55 268" fill="none" xmlns="http://www.w3.org/2000/svg">
<g clip-path="url(#clip0_1014_168)">
<path d="M1.46862 -4.67986e-06C1.90921 -4.64135e-06 2.3498 0.220149 2.64352 0.587062C3.15754 1.24752 3.01068 2.12814 2.42323 2.64184C1.76235 3.15551 0.881176 3.00875 0.367157 2.42169L0.293724 2.34829C-0.220295 1.68783 -0.0734291 0.807246 0.587452 0.293544C0.807747 0.07339 1.10147 -4.71196e-06 1.46862 -4.67986e-06ZM5.94793 5.87075C6.38852 5.87075 6.82911 6.09091 7.12284 6.45784L5.94793 7.33844L7.19627 6.53122C7.71028 7.19168 7.56342 8.07228 6.90254 8.58598C6.24166 9.09967 5.36048 8.95291 4.84646 8.29245L4.77303 8.21905C4.33244 7.55859 4.40588 6.67799 5.06676 6.1643C5.28705 6.01754 5.58078 5.87075 5.94793 5.87075ZM10.2069 11.9617C10.6475 11.9617 11.0881 12.1818 11.3818 12.5487L11.4553 12.6221C11.8959 13.2826 11.749 14.2366 11.0147 14.6769C10.3538 15.1172 9.3992 14.9704 8.95861 14.2366C8.51803 13.5761 8.66489 12.6221 9.32577 12.1818C9.61949 12.035 9.91322 11.9617 10.2069 11.9617ZM14.3925 18.126C14.8331 18.126 15.2737 18.3461 15.5674 18.7864L15.6409 18.8598C16.0814 19.5203 15.8612 20.4742 15.2003 20.9145C14.5394 21.3549 13.5848 21.1347 13.1442 20.4743C12.7036 19.8138 12.9239 18.8598 13.5848 18.4195C13.8051 18.2727 14.0988 18.126 14.3925 18.126ZM18.2844 24.437C18.7984 24.437 19.239 24.6572 19.5327 25.0975L19.6061 25.1709C20.0467 25.9047 19.8264 26.7853 19.0921 27.1522C18.3578 27.5925 17.4766 27.3724 17.1095 26.6386C16.6689 25.9781 16.8892 25.0241 17.5501 24.5838C17.7704 24.5104 17.9907 24.437 18.2844 24.437ZM22.1028 30.8215C22.6168 30.8215 23.0574 31.0416 23.3511 31.5553L23.4246 31.6287C23.7917 32.3625 23.5714 33.2432 22.8371 33.6101C22.1028 33.977 21.2216 33.7568 20.8545 33.023C20.4139 32.2892 20.7076 31.4085 21.3685 30.9682C21.5888 30.8948 21.8091 30.8215 22.1028 30.8215ZM25.6275 37.2793C26.1415 37.2793 26.6555 37.5728 26.9493 38.0865C27.3164 38.8204 27.0961 39.701 26.3618 40.0679C25.6275 40.4348 24.7463 40.2147 24.3792 39.4808L24.3057 39.4074C23.9386 38.6736 24.1589 37.793 24.8932 37.4261C25.1869 37.3527 25.4072 37.2793 25.6275 37.2793ZM29.0788 43.8839C29.5928 43.8839 30.1068 44.1774 30.3271 44.6911L30.4005 44.7645C30.7677 45.4983 30.474 46.379 29.7397 46.7459C29.0053 47.1128 28.1242 46.8193 27.757 46.0854C27.3899 45.3516 27.6836 44.471 28.4179 44.104C28.6382 43.9573 28.8585 43.8839 29.0788 43.8839ZM32.3098 50.5619C32.8972 50.5619 33.4112 50.8554 33.6315 51.4425L33.6315 51.5159C33.9987 52.2497 33.6315 53.1303 32.8972 53.4973C32.1629 53.8642 31.2817 53.4973 30.9146 52.7634L30.9146 52.69C30.5474 51.9562 30.9146 51.0756 31.6489 50.7086C31.8692 50.5619 32.0895 50.5619 32.3098 50.5619ZM35.3204 57.3132C35.9079 57.3132 36.4219 57.6802 36.6422 58.1939L35.3204 58.7809L36.7156 58.2673C37.0094 59.0011 36.7156 59.8817 35.9813 60.1752C35.247 60.4688 34.3658 60.1752 34.0721 59.4414L34.0721 59.368C33.7784 58.6342 34.0721 57.7536 34.8798 57.46C34.9533 57.3866 35.1736 57.3132 35.3204 57.3132ZM38.1843 64.138C38.7717 64.138 39.2857 64.5049 39.5795 65.092C39.8732 65.8259 39.506 66.7065 38.7717 67C38.0374 67.2935 37.1562 66.9266 36.8625 66.1928L36.8625 66.1194C36.5688 65.3855 36.9359 64.5049 37.6702 64.2114C37.8171 64.2114 38.0374 64.138 38.1843 64.138ZM40.8278 71.1095C41.4152 71.1095 42.0027 71.4765 42.223 72.0635L42.223 72.1369C42.5167 72.8708 42.1495 73.7514 41.3418 74.0449C40.6075 74.3385 39.7263 73.9715 39.4326 73.1643L39.4326 73.0909C39.1389 72.3571 39.5795 71.4764 40.3138 71.1829C40.4606 71.1095 40.6809 71.1095 40.8278 71.1095ZM43.251 78.0811C43.8385 78.0811 44.4259 78.448 44.6462 79.1084L44.6462 79.1818C44.9399 79.9157 44.4993 80.7963 43.6916 81.0164C42.9573 81.31 42.0761 80.8697 41.8558 80.0624L41.8558 79.989C41.6355 79.1818 42.0027 78.3746 42.8104 78.1544C42.9573 78.1544 43.1041 78.0811 43.251 78.0811ZM45.454 85.1993C46.1148 85.1993 46.7023 85.6397 46.8491 86.2267L46.8491 86.3001C47.0694 87.1073 46.6288 87.9146 45.8211 88.1347C45.0134 88.3549 44.2056 87.9146 43.9853 87.1073L43.9853 87.034C43.765 86.2267 44.2056 85.4195 45.0134 85.1993C45.1602 85.1993 45.3071 85.1993 45.454 85.1993ZM47.3632 92.391C48.024 92.391 48.6115 92.8313 48.7584 93.4918L48.7584 93.5652C48.9787 94.3724 48.4646 95.1796 47.6569 95.3264C46.8491 95.5466 46.0414 95.0329 45.8945 94.2256C45.6742 93.4184 46.1883 92.6112 46.9226 92.391C47.1429 92.391 47.2897 92.391 47.3632 92.391ZM49.0521 99.5827C49.713 99.5827 50.3738 100.023 50.5207 100.757L49.0521 101.05L50.5207 100.83C50.6676 101.637 50.227 102.371 49.4192 102.591C48.6115 102.738 47.8772 102.298 47.6569 101.491L47.6569 101.417C47.51 100.61 48.024 99.8763 48.7584 99.6561C48.9052 99.5827 48.9786 99.5827 49.0521 99.5827ZM50.5207 106.848C51.1816 106.848 51.8425 107.288 51.9159 108.022L51.9159 108.095C52.0628 108.903 51.5487 109.636 50.741 109.783C49.9333 109.93 49.1989 109.416 49.0521 108.609C48.9052 107.802 49.4192 106.995 50.227 106.848C50.3738 106.848 50.4473 106.848 50.5207 106.848ZM51.6956 114.186C52.4299 114.186 53.0174 114.7 53.1642 115.434L53.1642 115.507C53.2377 116.314 52.7236 117.048 51.9159 117.122C51.1082 117.195 50.3738 116.681 50.3004 115.874C50.1535 115.067 50.741 114.333 51.5487 114.186C51.5487 114.186 51.6222 114.186 51.6956 114.186ZM52.5768 121.525C53.3111 121.525 53.972 122.112 54.0454 122.846L54.0454 122.919C54.1188 123.726 53.5314 124.46 52.7236 124.533C51.9159 124.607 51.1816 124.02 51.1082 123.212L51.1082 123.139C51.0347 122.332 51.6222 121.598 52.4299 121.525C52.5033 121.525 52.5033 121.525 52.5768 121.525ZM53.1642 128.863C53.972 128.863 54.5594 129.45 54.6329 130.257L53.1642 130.331L54.6329 130.331C54.7063 131.138 54.1188 131.872 53.3111 131.872C52.5033 131.945 51.769 131.358 51.769 130.551L51.769 130.478C51.6956 129.67 52.3565 129.01 53.1642 128.936C53.1642 128.863 53.1642 128.863 53.1642 128.863ZM53.5314 136.348C54.3391 136.348 55 136.935 55 137.743L55 137.816C55 138.623 54.3391 139.284 53.5314 139.284C52.7236 139.284 52.0628 138.623 52.0628 137.816C52.0628 137.082 52.6502 136.348 53.5314 136.348ZM53.5314 143.76C54.3391 143.76 55 144.421 55 145.228L55 145.301C55 146.108 54.3391 146.769 53.458 146.696C52.6502 146.696 51.9893 145.962 52.0628 145.154C52.0628 144.421 52.7236 143.76 53.5314 143.76ZM53.2377 151.172L53.3111 151.172C54.1188 151.245 54.7063 151.906 54.7063 152.713L54.7063 152.786C54.6329 153.594 53.972 154.181 53.1642 154.181C52.3565 154.107 51.769 153.447 51.769 152.64C51.8425 151.759 52.5033 151.172 53.2377 151.172ZM52.6502 158.51C52.7236 158.51 52.7236 158.51 52.7971 158.51C53.6048 158.584 54.1923 159.318 54.1188 160.125L54.1188 160.198C54.0454 161.005 53.3111 161.593 52.5033 161.519C51.6956 161.446 51.1082 160.712 51.1816 159.905L51.1816 159.831C51.255 159.097 51.9159 158.51 52.6502 158.51ZM51.6956 165.922C51.769 165.922 51.8425 165.922 51.9159 165.922C52.7236 166.069 53.3111 166.729 53.1642 167.537L53.1642 167.61C53.0174 168.417 52.2831 168.931 51.4753 168.858C50.6676 168.711 50.1535 167.977 50.227 167.17C50.3738 166.436 51.0347 165.922 51.6956 165.922ZM50.5207 173.187C50.5941 173.187 50.741 173.187 50.8144 173.187C51.6222 173.334 52.1362 174.141 51.9893 174.875L50.5207 174.582L51.9893 174.949C51.8425 175.756 51.1082 176.269 50.3004 176.123C49.4927 175.976 48.9786 175.242 49.1255 174.435L49.1255 174.361C49.1989 173.628 49.7864 173.187 50.5207 173.187ZM48.9786 180.452C49.1255 180.452 49.1989 180.452 49.3458 180.526C50.1535 180.746 50.5941 181.48 50.4473 182.287C50.3004 183.094 49.4927 183.608 48.6849 183.388C47.8772 183.241 47.3632 182.434 47.5834 181.627L47.5834 181.553C47.7303 180.893 48.3178 180.452 48.9786 180.452ZM47.1429 187.644C47.2897 187.644 47.3632 187.644 47.51 187.717C48.3178 187.938 48.7583 188.671 48.5381 189.479L48.5381 189.552C48.3178 190.359 47.51 190.8 46.7023 190.579C45.8945 190.359 45.4539 189.552 45.6742 188.745C45.8945 188.084 46.482 187.644 47.1429 187.644ZM44.9399 194.689C45.0868 194.689 45.2336 194.689 45.3805 194.762C46.1883 194.982 46.5554 195.863 46.3351 196.597L46.3351 196.67C46.1148 197.478 45.2336 197.844 44.4993 197.624C43.6916 197.404 43.3244 196.524 43.5447 195.79L43.5447 195.716C43.765 195.056 44.3525 194.689 44.9399 194.689ZM42.5167 201.66C42.6636 201.66 42.8838 201.66 43.0307 201.734C43.765 202.027 44.2056 202.835 43.9119 203.642L42.5167 203.128L43.8385 203.715C43.5447 204.449 42.737 204.889 41.9292 204.596C41.1949 204.302 40.7543 203.495 41.0481 202.688L41.0481 202.614C41.3418 202.027 41.9292 201.66 42.5167 201.66ZM39.7997 208.632C39.9466 208.632 40.1669 208.632 40.3138 208.705C41.0481 208.999 41.4152 209.88 41.1215 210.613L41.1215 210.687C40.8278 211.421 39.9466 211.788 39.2123 211.494C38.478 211.2 38.1108 210.32 38.4045 209.586C38.6983 208.999 39.2123 208.632 39.7997 208.632ZM36.789 215.383C37.0093 215.383 37.2296 215.457 37.3765 215.53C38.1108 215.897 38.4045 216.778 38.1108 217.511L38.1108 217.585C37.7437 218.319 36.9359 218.686 36.2016 218.319C35.4673 217.952 35.1001 217.145 35.4673 216.411L35.5407 216.337C35.761 215.677 36.275 215.383 36.789 215.383ZM33.5581 222.061C33.7784 222.061 33.9987 222.135 34.219 222.208C34.9533 222.575 35.247 223.456 34.8798 224.189L34.8064 224.263C34.4392 224.997 33.5581 225.217 32.8238 224.85C32.0894 224.483 31.8692 223.602 32.2363 222.869C32.4566 222.355 33.0441 222.061 33.5581 222.061ZM30.0334 228.593C30.2537 228.593 30.474 228.666 30.6943 228.739C31.4286 229.106 31.6489 229.987 31.2817 230.721L31.2083 230.794C30.7677 231.528 29.8865 231.748 29.2256 231.308C28.4913 230.867 28.271 229.987 28.7116 229.326C29.0053 228.886 29.5194 228.593 30.0334 228.593ZM26.2884 234.977C26.5821 234.977 26.8024 235.05 27.0961 235.197C27.757 235.637 27.9773 236.518 27.5367 237.252L27.5367 237.325C27.0961 238.059 26.2149 238.279 25.5541 237.839C24.8932 237.399 24.5995 236.518 25.04 235.858L25.1135 235.784C25.3338 235.197 25.7744 234.977 26.2884 234.977ZM22.3231 241.215C22.6168 241.215 22.9105 241.288 23.1308 241.435C23.7917 241.875 24.012 242.829 23.5714 243.49L23.5714 243.563C23.1308 244.223 22.2497 244.444 21.5153 244.003C20.8545 243.563 20.6342 242.682 21.0748 241.949L21.1482 241.875C21.3685 241.435 21.8091 241.215 22.3231 241.215ZM18.1375 247.379C18.4312 247.379 18.725 247.452 18.9452 247.673C19.6061 248.113 19.753 248.993 19.3124 249.654L19.239 249.727C18.725 250.388 17.8438 250.535 17.1829 250.021C16.522 249.581 16.3751 248.627 16.8892 247.966C17.1829 247.599 17.6235 247.379 18.1375 247.379ZM13.7316 253.323C14.0253 253.323 14.3191 253.396 14.6128 253.617C15.2737 254.13 15.4205 255.011 14.9065 255.671L14.8331 255.745C14.3191 256.405 13.4379 256.479 12.777 256.038C12.1161 255.525 12.0427 254.644 12.4833 253.984C12.8504 253.543 13.291 253.323 13.7316 253.323ZM9.17889 259.194C9.47261 259.194 9.83977 259.267 10.0601 259.487C10.7209 260.001 10.7944 260.882 10.2804 261.542L10.2069 261.616C9.69291 262.276 8.7383 262.349 8.15085 261.836C7.48997 261.322 7.41654 260.368 7.93056 259.781C8.29771 259.341 8.7383 259.194 9.17889 259.194Z" fill="#D20000"/>
<path d="M2.34978 256.992L4.18556 256.919L4.62615 265.945L13.5848 264.844L13.8051 266.679L2.86379 268L2.34978 256.992Z" fill="#D20000"/>
</g>
<defs>
<clipPath id="clip0_1014_168">
<rect width="55" height="268" fill="white" transform="translate(55 268) rotate(-180)"/>
</clipPath>
</defs>
</svg>
