<svg width="190" height="51" viewBox="0 0 190 51" fill="none" xmlns="http://www.w3.org/2000/svg">
<path d="M81.2614 38.1146C81.1121 38.0866 80.9581 38.0726 80.7994 38.0726C80.5101 38.0726 80.2394 38.1356 79.9874 38.2616C79.7354 38.3876 79.5161 38.5579 79.3294 38.7726C79.1474 38.9873 79.0027 39.2346 78.8954 39.5146C78.7881 39.7899 78.7344 40.0769 78.7344 40.3756C78.7344 40.6743 78.7974 40.9076 78.9234 41.0756C79.0541 41.2389 79.2431 41.3206 79.4904 41.3206C79.6117 41.3206 79.7331 41.3019 79.8544 41.2646C79.9804 41.2273 80.0994 41.1619 80.2114 41.0686C80.3234 40.9706 80.4261 40.8423 80.5194 40.6836C80.6127 40.5249 80.6897 40.3266 80.7504 40.0886L81.2614 38.1146ZM82.0804 39.9066C82.0057 40.2053 81.9684 40.4503 81.9684 40.6416C81.9731 40.8283 82.0034 40.9776 82.0594 41.0896C82.1154 41.1969 82.1947 41.2716 82.2974 41.3136C82.4001 41.3556 82.5167 41.3766 82.6474 41.3766C82.8434 41.3766 83.0277 41.3159 83.2004 41.1946C83.3777 41.0686 83.5317 40.8936 83.6624 40.6696C83.7931 40.4456 83.8957 40.1796 83.9704 39.8716C84.0497 39.5636 84.0894 39.2276 84.0894 38.8636C84.0894 38.2569 83.9937 37.7226 83.8024 37.2606C83.6157 36.7986 83.3521 36.4136 83.0114 36.1056C82.6707 35.7929 82.2647 35.5596 81.7934 35.4056C81.3267 35.2469 80.8134 35.1676 80.2534 35.1676C79.6374 35.1676 79.0681 35.2843 78.5454 35.5176C78.0227 35.7463 77.5677 36.0613 77.1804 36.4626C76.7977 36.8639 76.4967 37.3376 76.2774 37.8836C76.0627 38.4296 75.9554 39.0176 75.9554 39.6476C75.9554 40.4129 76.0744 41.0873 76.3124 41.6706C76.5504 42.2493 76.8771 42.7346 77.2924 43.1266C77.7077 43.5139 78.1954 43.8056 78.7554 44.0016C79.3201 44.1976 79.9291 44.2956 80.5824 44.2956C80.9417 44.2956 81.2777 44.2746 81.5904 44.2326C81.9031 44.1953 82.1901 44.1416 82.4514 44.0716C82.7127 44.0063 82.9507 43.9293 83.1654 43.8406C83.3801 43.7566 83.5714 43.6656 83.7394 43.5676C83.8607 43.4976 83.9681 43.4766 84.0614 43.5046C84.1547 43.5326 84.2224 43.6026 84.2644 43.7146L84.5024 44.3376C84.0171 44.6549 83.4501 44.9139 82.8014 45.1146C82.1527 45.3153 81.4131 45.4156 80.5824 45.4156C79.7377 45.4156 78.9561 45.2826 78.2374 45.0166C77.5187 44.7506 76.8957 44.3679 76.3684 43.8686C75.8457 43.3739 75.4351 42.7696 75.1364 42.0556C74.8424 41.3416 74.6954 40.5389 74.6954 39.6476C74.6954 39.1483 74.7584 38.6629 74.8844 38.1916C75.0151 37.7203 75.1994 37.2793 75.4374 36.8686C75.6754 36.4533 75.9624 36.0729 76.2984 35.7276C76.6344 35.3823 77.0077 35.0859 77.4184 34.8386C77.8291 34.5913 78.2724 34.3999 78.7484 34.2646C79.2291 34.1246 79.7307 34.0546 80.2534 34.0546C80.9161 34.0546 81.5507 34.1666 82.1574 34.3906C82.7687 34.6099 83.3077 34.9273 83.7744 35.3426C84.2457 35.7533 84.6214 36.2573 84.9014 36.8546C85.1814 37.4473 85.3214 38.1169 85.3214 38.8636C85.3214 39.3629 85.2467 39.8319 85.0974 40.2706C84.9527 40.7046 84.7474 41.0826 84.4814 41.4046C84.2201 41.7266 83.9097 41.9809 83.5504 42.1676C83.1957 42.3496 82.8084 42.4406 82.3884 42.4406C82.0664 42.4406 81.7817 42.3659 81.5344 42.2166C81.2871 42.0673 81.1167 41.8269 81.0234 41.4956C80.7481 41.8316 80.4564 42.0719 80.1484 42.2166C79.8404 42.3613 79.5067 42.4336 79.1474 42.4336C78.8534 42.4336 78.5967 42.3823 78.3774 42.2796C78.1627 42.1769 77.9807 42.0369 77.8314 41.8596C77.6867 41.6776 77.5771 41.4653 77.5024 41.2226C77.4324 40.9753 77.3974 40.7069 77.3974 40.4176C77.3974 40.1516 77.4301 39.8833 77.4954 39.6126C77.5654 39.3373 77.6681 39.0736 77.8034 38.8216C77.9387 38.5649 78.1067 38.3269 78.3074 38.1076C78.5127 37.8836 78.7507 37.6899 79.0214 37.5266C79.2967 37.3586 79.6047 37.2279 79.9454 37.1346C80.2907 37.0366 80.6687 36.9876 81.0794 36.9876C81.4434 36.9876 81.7537 37.0156 82.0104 37.0716C82.2671 37.1276 82.5144 37.2069 82.7524 37.3096L82.0804 39.9066ZM88.5169 36.5466V43.7286H86.7809V36.5466H88.5169ZM88.7549 34.4536C88.7549 34.6029 88.7246 34.7429 88.6639 34.8736C88.6032 35.0043 88.5216 35.1186 88.4189 35.2166C88.3209 35.3146 88.2042 35.3939 88.0689 35.4546C87.9336 35.5106 87.7889 35.5386 87.6349 35.5386C87.4856 35.5386 87.3432 35.5106 87.2079 35.4546C87.0772 35.3939 86.9629 35.3146 86.8649 35.2166C86.7669 35.1186 86.6876 35.0043 86.6269 34.8736C86.5709 34.7429 86.5429 34.6029 86.5429 34.4536C86.5429 34.2996 86.5709 34.1549 86.6269 34.0196C86.6876 33.8843 86.7669 33.7676 86.8649 33.6696C86.9629 33.5716 87.0772 33.4946 87.2079 33.4386C87.3432 33.3779 87.4856 33.3476 87.6349 33.3476C87.7889 33.3476 87.9336 33.3779 88.0689 33.4386C88.2042 33.4946 88.3209 33.5716 88.4189 33.6696C88.5216 33.7676 88.6032 33.8843 88.6639 34.0196C88.7246 34.1549 88.7549 34.2996 88.7549 34.4536ZM90.2796 43.7286V36.5466H91.3366C91.5606 36.5466 91.7076 36.6516 91.7776 36.8616L91.8896 37.3936C92.0156 37.2536 92.1463 37.1253 92.2816 37.0086C92.4216 36.8919 92.5686 36.7916 92.7226 36.7076C92.8813 36.6236 93.0493 36.5583 93.2266 36.5116C93.4086 36.4603 93.6069 36.4346 93.8216 36.4346C94.2743 36.4346 94.6453 36.5583 94.9346 36.8056C95.2286 37.0483 95.4479 37.3726 95.5926 37.7786C95.7046 37.5406 95.8446 37.3376 96.0126 37.1696C96.1806 36.9969 96.3649 36.8569 96.5656 36.7496C96.7663 36.6423 96.9786 36.5629 97.2026 36.5116C97.4313 36.4603 97.6599 36.4346 97.8886 36.4346C98.2853 36.4346 98.6376 36.4953 98.9456 36.6166C99.2536 36.7379 99.5126 36.9153 99.7226 37.1486C99.9326 37.3819 100.091 37.6666 100.199 38.0026C100.311 38.3386 100.367 38.7236 100.367 39.1576V43.7286H98.6376V39.1576C98.6376 38.7003 98.5373 38.3573 98.3366 38.1286C98.1359 37.8953 97.8419 37.7786 97.4546 37.7786C97.2773 37.7786 97.1116 37.8089 96.9576 37.8696C96.8083 37.9303 96.6753 38.0189 96.5586 38.1356C96.4466 38.2476 96.3579 38.3899 96.2926 38.5626C96.2273 38.7353 96.1946 38.9336 96.1946 39.1576V43.7286H94.4586V39.1576C94.4586 38.6769 94.3606 38.3269 94.1646 38.1076C93.9733 37.8883 93.6909 37.7786 93.3176 37.7786C93.0656 37.7786 92.8299 37.8416 92.6106 37.9676C92.3959 38.0889 92.1953 38.2569 92.0086 38.4716V43.7286H90.2796ZM103.802 36.5466V43.7286H102.066V36.5466H103.802ZM104.04 34.4536C104.04 34.6029 104.01 34.7429 103.949 34.8736C103.888 35.0043 103.807 35.1186 103.704 35.2166C103.606 35.3146 103.489 35.3939 103.354 35.4546C103.219 35.5106 103.074 35.5386 102.92 35.5386C102.771 35.5386 102.628 35.5106 102.493 35.4546C102.362 35.3939 102.248 35.3146 102.15 35.2166C102.052 35.1186 101.973 35.0043 101.912 34.8736C101.856 34.7429 101.828 34.6029 101.828 34.4536C101.828 34.2996 101.856 34.1549 101.912 34.0196C101.973 33.8843 102.052 33.7676 102.15 33.6696C102.248 33.5716 102.362 33.4946 102.493 33.4386C102.628 33.3779 102.771 33.3476 102.92 33.3476C103.074 33.3476 103.219 33.3779 103.354 33.4386C103.489 33.4946 103.606 33.5716 103.704 33.6696C103.807 33.7676 103.888 33.8843 103.949 34.0196C104.01 34.1549 104.04 34.2996 104.04 34.4536ZM107.196 37.7926C107.42 37.3633 107.686 37.0273 107.994 36.7846C108.302 36.5373 108.666 36.4136 109.086 36.4136C109.417 36.4136 109.683 36.4859 109.884 36.6306L109.772 37.9256C109.748 38.0096 109.713 38.0703 109.667 38.1076C109.625 38.1403 109.566 38.1566 109.492 38.1566C109.422 38.1566 109.317 38.1449 109.177 38.1216C109.041 38.0983 108.908 38.0866 108.778 38.0866C108.586 38.0866 108.416 38.1146 108.267 38.1706C108.117 38.2266 107.982 38.3083 107.861 38.4156C107.744 38.5183 107.639 38.6443 107.546 38.7936C107.457 38.9429 107.373 39.1133 107.294 39.3046V43.7286H105.565V36.5466H106.58C106.757 36.5466 106.881 36.5793 106.951 36.6446C107.021 36.7053 107.067 36.8173 107.091 36.9806L107.196 37.7926ZM113.76 36.4346C114.292 36.4346 114.775 36.5209 115.209 36.6936C115.648 36.8663 116.021 37.1113 116.329 37.4286C116.642 37.7459 116.882 38.1333 117.05 38.5906C117.218 39.0479 117.302 39.5589 117.302 40.1236C117.302 40.6929 117.218 41.2063 117.05 41.6636C116.882 42.1209 116.642 42.5106 116.329 42.8326C116.021 43.1546 115.648 43.4019 115.209 43.5746C114.775 43.7473 114.292 43.8336 113.76 43.8336C113.224 43.8336 112.736 43.7473 112.297 43.5746C111.859 43.4019 111.483 43.1546 111.17 42.8326C110.862 42.5106 110.622 42.1209 110.449 41.6636C110.281 41.2063 110.197 40.6929 110.197 40.1236C110.197 39.5589 110.281 39.0479 110.449 38.5906C110.622 38.1333 110.862 37.7459 111.17 37.4286C111.483 37.1113 111.859 36.8663 112.297 36.6936C112.736 36.5209 113.224 36.4346 113.76 36.4346ZM113.76 42.5036C114.358 42.5036 114.799 42.3029 115.083 41.9016C115.373 41.5003 115.517 40.9123 115.517 40.1376C115.517 39.3629 115.373 38.7726 115.083 38.3666C114.799 37.9606 114.358 37.7576 113.76 37.7576C113.154 37.7576 112.703 37.9629 112.409 38.3736C112.12 38.7796 111.975 39.3676 111.975 40.1376C111.975 40.9076 112.12 41.4956 112.409 41.9016C112.703 42.3029 113.154 42.5036 113.76 42.5036ZM120.238 37.4286C120.383 37.2839 120.535 37.1509 120.693 37.0296C120.857 36.9036 121.027 36.7986 121.204 36.7146C121.386 36.6259 121.58 36.5583 121.785 36.5116C121.991 36.4603 122.215 36.4346 122.457 36.4346C122.849 36.4346 123.197 36.5023 123.5 36.6376C123.804 36.7683 124.056 36.9549 124.256 37.1976C124.462 37.4356 124.616 37.7226 124.718 38.0586C124.826 38.3899 124.879 38.7563 124.879 39.1576V43.7286H123.15V39.1576C123.15 38.7189 123.05 38.3806 122.849 38.1426C122.649 37.8999 122.343 37.7786 121.932 37.7786C121.634 37.7786 121.354 37.8463 121.092 37.9816C120.831 38.1169 120.584 38.3013 120.35 38.5346V43.7286H118.621V36.5466H119.678C119.902 36.5466 120.049 36.6516 120.119 36.8616L120.238 37.4286ZM126.272 42.7766C126.272 42.6319 126.297 42.4943 126.349 42.3636C126.405 42.2329 126.479 42.1209 126.573 42.0276C126.666 41.9343 126.778 41.8596 126.909 41.8036C127.039 41.7476 127.179 41.7196 127.329 41.7196C127.478 41.7196 127.616 41.7476 127.742 41.8036C127.872 41.8596 127.984 41.9343 128.078 42.0276C128.176 42.1209 128.253 42.2329 128.309 42.3636C128.365 42.4943 128.393 42.6319 128.393 42.7766C128.393 42.9259 128.365 43.0659 128.309 43.1966C128.253 43.3226 128.176 43.4323 128.078 43.5256C127.984 43.6189 127.872 43.6913 127.742 43.7426C127.616 43.7986 127.478 43.8266 127.329 43.8266C127.179 43.8266 127.039 43.7986 126.909 43.7426C126.778 43.6913 126.666 43.6189 126.573 43.5256C126.479 43.4323 126.405 43.3226 126.349 43.1966C126.297 43.0659 126.272 42.9259 126.272 42.7766ZM131.477 37.7926C131.701 37.3633 131.967 37.0273 132.275 36.7846C132.583 36.5373 132.947 36.4136 133.367 36.4136C133.698 36.4136 133.964 36.4859 134.165 36.6306L134.053 37.9256C134.03 38.0096 133.995 38.0703 133.948 38.1076C133.906 38.1403 133.848 38.1566 133.773 38.1566C133.703 38.1566 133.598 38.1449 133.458 38.1216C133.323 38.0983 133.19 38.0866 133.059 38.0866C132.868 38.0866 132.697 38.1146 132.548 38.1706C132.399 38.2266 132.263 38.3083 132.142 38.4156C132.025 38.5183 131.92 38.6443 131.827 38.7936C131.738 38.9429 131.654 39.1133 131.575 39.3046V43.7286H129.846V36.5466H130.861C131.038 36.5466 131.162 36.5793 131.232 36.6446C131.302 36.7053 131.349 36.8173 131.372 36.9806L131.477 37.7926ZM141.257 36.5466V43.7286H140.2C139.971 43.7286 139.826 43.6236 139.766 43.4136L139.647 42.8396C139.353 43.1383 139.028 43.3809 138.674 43.5676C138.319 43.7496 137.901 43.8406 137.421 43.8406C137.029 43.8406 136.681 43.7753 136.378 43.6446C136.079 43.5093 135.827 43.3203 135.622 43.0776C135.416 42.8349 135.26 42.5479 135.153 42.2166C135.05 41.8806 134.999 41.5119 134.999 41.1106V36.5466H136.728V41.1106C136.728 41.5493 136.828 41.8899 137.029 42.1326C137.234 42.3706 137.54 42.4896 137.946 42.4896C138.244 42.4896 138.524 42.4243 138.786 42.2936C139.047 42.1583 139.294 41.9739 139.528 41.7406V36.5466H141.257Z" fill="black"/>
<path d="M80.6524 11.9921L79.0774 7.91106C79.0307 7.78973 78.9817 7.64973 78.9304 7.49106C78.8791 7.32773 78.8301 7.15506 78.7834 6.97306C78.6854 7.35106 78.5851 7.66606 78.4824 7.91806L76.9074 11.9921H80.6524ZM83.4804 15.7161H82.4304C82.3091 15.7161 82.2111 15.6857 82.1364 15.6251C82.0617 15.5644 82.0057 15.4874 81.9684 15.3941L81.0304 12.9721H76.5294L75.5914 15.3941C75.5634 15.4781 75.5097 15.5527 75.4304 15.6181C75.3511 15.6834 75.2507 15.7161 75.1294 15.7161H74.0864L78.0974 5.68506H79.4694L83.4804 15.7161ZM90.8317 15.7161H89.5857V9.60506H87.3457C87.2897 10.5057 87.2057 11.2851 87.0937 11.9431C86.9817 12.5964 86.8464 13.1541 86.6877 13.6161C86.5337 14.0734 86.3587 14.4467 86.1627 14.7361C85.9714 15.0207 85.7684 15.2424 85.5537 15.4011C85.3437 15.5597 85.1244 15.6671 84.8957 15.7231C84.6717 15.7791 84.4477 15.8071 84.2237 15.8071C83.8271 15.8071 83.6287 15.7441 83.6287 15.6181V14.8271H83.9927C84.1514 14.8271 84.3124 14.7991 84.4757 14.7431C84.6391 14.6871 84.7977 14.5797 84.9517 14.4211C85.1104 14.2624 85.2621 14.0407 85.4067 13.7561C85.5514 13.4667 85.6821 13.0934 85.7987 12.6361C85.9201 12.1741 86.0227 11.6164 86.1067 10.9631C86.1954 10.3051 86.2631 9.52573 86.3097 8.62506H90.8317V15.7161ZM97.5512 11.3971C97.5512 11.1077 97.5092 10.8441 97.4252 10.6061C97.3458 10.3634 97.2268 10.1557 97.0682 9.98306C96.9142 9.80573 96.7252 9.6704 96.5012 9.57706C96.2772 9.47906 96.0228 9.43006 95.7382 9.43006C95.1408 9.43006 94.6672 9.60506 94.3172 9.95506C93.9718 10.3004 93.7572 10.7811 93.6732 11.3971H97.5512ZM98.5592 14.7221C98.4052 14.9087 98.2208 15.0721 98.0062 15.2121C97.7915 15.3474 97.5605 15.4594 97.3132 15.5481C97.0705 15.6367 96.8185 15.7021 96.5572 15.7441C96.2958 15.7907 96.0368 15.8141 95.7802 15.8141C95.2902 15.8141 94.8375 15.7324 94.4222 15.5691C94.0115 15.4011 93.6545 15.1584 93.3512 14.8411C93.0525 14.5191 92.8192 14.1224 92.6512 13.6511C92.4832 13.1797 92.3992 12.6384 92.3992 12.0271C92.3992 11.5324 92.4738 11.0704 92.6232 10.6411C92.7772 10.2117 92.9965 9.84073 93.2812 9.52806C93.5658 9.21073 93.9135 8.9634 94.3242 8.78606C94.7348 8.60406 95.1968 8.51306 95.7102 8.51306C96.1348 8.51306 96.5268 8.5854 96.8862 8.73006C97.2502 8.87006 97.5628 9.0754 97.8242 9.34606C98.0902 9.61206 98.2978 9.9434 98.4472 10.3401C98.5965 10.7321 98.6712 11.1801 98.6712 11.6841C98.6712 11.8801 98.6502 12.0107 98.6082 12.0761C98.5662 12.1414 98.4868 12.1741 98.3702 12.1741H93.6312C93.6452 12.6221 93.7058 13.0117 93.8132 13.3431C93.9252 13.6744 94.0792 13.9521 94.2752 14.1761C94.4712 14.3954 94.7045 14.5611 94.9752 14.6731C95.2458 14.7804 95.5492 14.8341 95.8852 14.8341C96.1978 14.8341 96.4662 14.7991 96.6902 14.7291C96.9188 14.6544 97.1148 14.5751 97.2782 14.4911C97.4415 14.4071 97.5768 14.3301 97.6842 14.2601C97.7962 14.1854 97.8918 14.1481 97.9712 14.1481C98.0738 14.1481 98.1532 14.1877 98.2092 14.2671L98.5592 14.7221ZM104.507 8.97506C104.572 8.8724 104.658 8.7884 104.766 8.72306C104.873 8.65773 104.987 8.62506 105.109 8.62506H106.082L104.241 11.3271C104.129 11.4997 104.012 11.6421 103.891 11.7541C103.769 11.8614 103.62 11.9454 103.443 12.0061C103.667 12.0667 103.856 12.1624 104.01 12.2931C104.164 12.4191 104.301 12.5824 104.423 12.7831L106.285 15.7161H105.417C105.193 15.7161 105.02 15.6787 104.899 15.6041C104.777 15.5294 104.672 15.4221 104.584 15.2821L103.205 13.0771C102.985 12.7131 102.656 12.5311 102.218 12.5311H101.455V15.7231H100.202V8.62506H101.455V11.6911H102.127C102.5 11.6911 102.792 11.5324 103.002 11.2151L104.507 8.97506ZM112.109 9.88506C112.072 9.9364 112.035 9.97606 111.997 10.0041C111.96 10.0321 111.909 10.0461 111.843 10.0461C111.773 10.0461 111.696 10.0181 111.612 9.96206C111.528 9.9014 111.423 9.83606 111.297 9.76606C111.176 9.69606 111.024 9.63306 110.842 9.57706C110.665 9.5164 110.446 9.48606 110.184 9.48606C109.834 9.48606 109.526 9.54906 109.26 9.67506C108.994 9.7964 108.77 9.97373 108.588 10.2071C108.411 10.4404 108.276 10.7227 108.182 11.0541C108.094 11.3854 108.049 11.7564 108.049 12.1671C108.049 12.5964 108.098 12.9791 108.196 13.3151C108.294 13.6464 108.432 13.9264 108.609 14.1551C108.791 14.3791 109.008 14.5517 109.26 14.6731C109.517 14.7897 109.804 14.8481 110.121 14.8481C110.425 14.8481 110.674 14.8131 110.87 14.7431C111.066 14.6684 111.227 14.5867 111.353 14.4981C111.484 14.4094 111.591 14.3301 111.675 14.2601C111.764 14.1854 111.85 14.1481 111.934 14.1481C112.037 14.1481 112.116 14.1877 112.172 14.2671L112.522 14.7221C112.368 14.9134 112.193 15.0767 111.997 15.2121C111.801 15.3474 111.589 15.4617 111.36 15.5551C111.136 15.6437 110.901 15.7091 110.653 15.7511C110.406 15.7931 110.154 15.8141 109.897 15.8141C109.454 15.8141 109.041 15.7324 108.658 15.5691C108.28 15.4057 107.951 15.1701 107.671 14.8621C107.391 14.5494 107.172 14.1667 107.013 13.7141C106.855 13.2614 106.775 12.7457 106.775 12.1671C106.775 11.6397 106.848 11.1521 106.992 10.7041C107.142 10.2561 107.356 9.87106 107.636 9.54906C107.921 9.2224 108.269 8.96806 108.679 8.78606C109.095 8.60406 109.571 8.51306 110.107 8.51306C110.607 8.51306 111.045 8.59473 111.423 8.75806C111.806 8.91673 112.144 9.14306 112.438 9.43706L112.109 9.88506ZM117.703 12.5241C117.129 12.5427 116.639 12.5894 116.233 12.6641C115.832 12.7341 115.503 12.8274 115.246 12.9441C114.994 13.0607 114.81 13.1984 114.693 13.3571C114.581 13.5157 114.525 13.6931 114.525 13.8891C114.525 14.0757 114.555 14.2367 114.616 14.3721C114.677 14.5074 114.758 14.6194 114.861 14.7081C114.968 14.7921 115.092 14.8551 115.232 14.8971C115.377 14.9344 115.531 14.9531 115.694 14.9531C115.913 14.9531 116.114 14.9321 116.296 14.8901C116.478 14.8434 116.648 14.7781 116.807 14.6941C116.97 14.6101 117.124 14.5097 117.269 14.3931C117.418 14.2764 117.563 14.1434 117.703 13.9941V12.5241ZM113.678 9.62606C114.07 9.24806 114.492 8.96573 114.945 8.77906C115.398 8.5924 115.899 8.49906 116.45 8.49906C116.847 8.49906 117.199 8.5644 117.507 8.69506C117.815 8.82573 118.074 9.00773 118.284 9.24106C118.494 9.4744 118.653 9.75673 118.76 10.0881C118.867 10.4194 118.921 10.7834 118.921 11.1801V15.7161H118.368C118.247 15.7161 118.153 15.6974 118.088 15.6601C118.023 15.6181 117.971 15.5387 117.934 15.4221L117.794 14.7501C117.607 14.9227 117.425 15.0767 117.248 15.2121C117.071 15.3427 116.884 15.4547 116.688 15.5481C116.492 15.6367 116.282 15.7044 116.058 15.7511C115.839 15.8024 115.594 15.8281 115.323 15.8281C115.048 15.8281 114.789 15.7907 114.546 15.7161C114.303 15.6367 114.091 15.5201 113.909 15.3661C113.732 15.2121 113.589 15.0184 113.482 14.7851C113.379 14.5471 113.328 14.2671 113.328 13.9451C113.328 13.6651 113.405 13.3967 113.559 13.1401C113.713 12.8787 113.963 12.6477 114.308 12.4471C114.653 12.2464 115.104 12.0831 115.659 11.9571C116.214 11.8264 116.896 11.7517 117.703 11.7331V11.1801C117.703 10.6294 117.584 10.2141 117.346 9.93406C117.108 9.6494 116.76 9.50706 116.303 9.50706C115.995 9.50706 115.736 9.54673 115.526 9.62606C115.321 9.70073 115.141 9.78706 114.987 9.88506C114.838 9.9784 114.707 10.0647 114.595 10.1441C114.488 10.2187 114.38 10.2561 114.273 10.2561C114.189 10.2561 114.117 10.2351 114.056 10.1931C113.995 10.1464 113.944 10.0904 113.902 10.0251L113.678 9.62606ZM126.727 8.62506V15.7161H125.474V12.3981H122.072V15.7161H120.819V8.62506H122.072V11.4531H125.474V8.62506H126.727ZM133.594 14.8061V9.60506H131.347C131.3 10.3331 131.235 10.9771 131.151 11.5371C131.067 12.0971 130.969 12.5894 130.857 13.0141C130.749 13.4341 130.628 13.7911 130.493 14.0851C130.362 14.3791 130.224 14.6194 130.08 14.8061H133.594ZM136.1 14.7711V17.7741C136.1 17.8954 136.065 17.9887 135.995 18.0541C135.929 18.1241 135.843 18.1591 135.736 18.1591H134.973V15.7161H129.009V17.8021C129.009 17.8907 128.981 17.9724 128.925 18.0471C128.873 18.1217 128.787 18.1591 128.666 18.1591H127.882V14.8061H128.113C128.276 14.8061 128.437 14.7781 128.596 14.7221C128.759 14.6661 128.915 14.5611 129.065 14.4071C129.214 14.2484 129.354 14.0267 129.485 13.7421C129.62 13.4574 129.741 13.0864 129.849 12.6291C129.956 12.1717 130.049 11.6164 130.129 10.9631C130.208 10.3051 130.271 9.52573 130.318 8.62506H134.805V14.7711H136.1ZM138.615 14.0081C138.843 14.3161 139.093 14.5331 139.364 14.6591C139.634 14.7851 139.938 14.8481 140.274 14.8481C140.936 14.8481 141.445 14.6124 141.8 14.1411C142.154 13.6697 142.332 12.9977 142.332 12.1251C142.332 11.6631 142.29 11.2664 142.206 10.9351C142.126 10.6037 142.01 10.3331 141.856 10.1231C141.702 9.9084 141.513 9.75206 141.289 9.65406C141.065 9.55606 140.81 9.50706 140.526 9.50706C140.12 9.50706 139.763 9.6004 139.455 9.78706C139.151 9.97373 138.871 10.2374 138.615 10.5781V14.0081ZM138.552 9.72406C138.85 9.3554 139.196 9.05906 139.588 8.83506C139.98 8.61106 140.428 8.49906 140.932 8.49906C141.342 8.49906 141.713 8.5784 142.045 8.73706C142.376 8.89106 142.658 9.12206 142.892 9.43006C143.125 9.7334 143.305 10.1114 143.431 10.5641C143.557 11.0167 143.62 11.5371 143.62 12.1251C143.62 12.6477 143.55 13.1354 143.41 13.5881C143.27 14.0361 143.067 14.4257 142.801 14.7571C142.539 15.0837 142.217 15.3427 141.835 15.5341C141.457 15.7207 141.03 15.8141 140.554 15.8141C140.12 15.8141 139.746 15.7417 139.434 15.5971C139.126 15.4477 138.853 15.2424 138.615 14.9811V18.1171H137.362V8.62506H138.111C138.288 8.62506 138.398 8.7114 138.44 8.88406L138.552 9.72406ZM85.7764 19.6851V29.7161H84.5864V22.3451C84.5864 22.2471 84.5887 22.1421 84.5934 22.0301C84.6027 21.9181 84.6121 21.8037 84.6214 21.6871L81.1774 27.9591C81.0701 28.1691 80.9067 28.2741 80.6874 28.2741H80.4914C80.2721 28.2741 80.1087 28.1691 80.0014 27.9591L76.4874 21.6591C76.5154 21.9064 76.5294 22.1351 76.5294 22.3451V29.7161H75.3394V19.6851H76.3404C76.4617 19.6851 76.5551 19.6967 76.6204 19.7201C76.6857 19.7434 76.7487 19.8087 76.8094 19.9161L80.2744 26.0901C80.3304 26.2021 80.3841 26.3187 80.4354 26.4401C80.4914 26.5614 80.5427 26.6851 80.5894 26.8111C80.6361 26.6851 80.6851 26.5614 80.7364 26.4401C80.7877 26.3141 80.8437 26.1951 80.9044 26.0831L84.3064 19.9161C84.3624 19.8087 84.4231 19.7434 84.4884 19.7201C84.5584 19.6967 84.6541 19.6851 84.7754 19.6851H85.7764ZM94.021 22.6251V29.7161H92.775V24.9001C92.775 24.8067 92.7797 24.7064 92.789 24.5991C92.7983 24.4917 92.81 24.3844 92.824 24.2771C92.782 24.3704 92.74 24.4567 92.698 24.5361C92.656 24.6154 92.6117 24.6877 92.565 24.7531L89.142 29.4081C89.0907 29.4827 89.0253 29.5551 88.946 29.6251C88.8713 29.6904 88.7873 29.7231 88.694 29.7231H87.938V22.6321H89.191V27.4481C89.191 27.5367 89.1863 27.6347 89.177 27.7421C89.1677 27.8447 89.156 27.9497 89.142 28.0571C89.184 27.9684 89.226 27.8867 89.268 27.8121C89.31 27.7327 89.352 27.6604 89.394 27.5951L92.817 22.9401C92.8683 22.8654 92.9337 22.7954 93.013 22.7301C93.0923 22.6601 93.1787 22.6251 93.272 22.6251H94.021ZM97.2437 28.0081C97.4724 28.3161 97.7221 28.5331 97.9927 28.6591C98.2634 28.7851 98.5667 28.8481 98.9027 28.8481C99.5654 28.8481 100.074 28.6124 100.429 28.1411C100.783 27.6697 100.961 26.9977 100.961 26.1251C100.961 25.6631 100.919 25.2664 100.835 24.9351C100.755 24.6037 100.639 24.3331 100.485 24.1231C100.331 23.9084 100.142 23.7521 99.9177 23.6541C99.6937 23.5561 99.4394 23.5071 99.1547 23.5071C98.7487 23.5071 98.3917 23.6004 98.0837 23.7871C97.7804 23.9737 97.5004 24.2374 97.2437 24.5781V28.0081ZM97.1807 23.7241C97.4794 23.3554 97.8247 23.0591 98.2167 22.8351C98.6087 22.6111 99.0567 22.4991 99.5607 22.4991C99.9714 22.4991 100.342 22.5784 100.674 22.7371C101.005 22.8911 101.287 23.1221 101.521 23.4301C101.754 23.7334 101.934 24.1114 102.06 24.5641C102.186 25.0167 102.249 25.5371 102.249 26.1251C102.249 26.6477 102.179 27.1354 102.039 27.5881C101.899 28.0361 101.696 28.4257 101.43 28.7571C101.168 29.0837 100.846 29.3427 100.464 29.5341C100.086 29.7207 99.6587 29.8141 99.1827 29.8141C98.7487 29.8141 98.3754 29.7417 98.0627 29.5971C97.7547 29.4477 97.4817 29.2424 97.2437 28.9811V32.1171H95.9907V22.6251H96.7397C96.9171 22.6251 97.0267 22.7114 97.0687 22.8841L97.1807 23.7241ZM106.814 22.5131C107.332 22.5131 107.798 22.5994 108.214 22.7721C108.629 22.9447 108.984 23.1897 109.278 23.5071C109.572 23.8244 109.796 24.2094 109.95 24.6621C110.108 25.1101 110.188 25.6117 110.188 26.1671C110.188 26.7271 110.108 27.2311 109.95 27.6791C109.796 28.1271 109.572 28.5097 109.278 28.8271C108.984 29.1444 108.629 29.3894 108.214 29.5621C107.798 29.7301 107.332 29.8141 106.814 29.8141C106.291 29.8141 105.82 29.7301 105.4 29.5621C104.984 29.3894 104.63 29.1444 104.336 28.8271C104.042 28.5097 103.815 28.1271 103.657 27.6791C103.503 27.2311 103.426 26.7271 103.426 26.1671C103.426 25.6117 103.503 25.1101 103.657 24.6621C103.815 24.2094 104.042 23.8244 104.336 23.5071C104.63 23.1897 104.984 22.9447 105.4 22.7721C105.82 22.5994 106.291 22.5131 106.814 22.5131ZM106.814 28.8411C107.514 28.8411 108.036 28.6077 108.382 28.1411C108.727 27.6697 108.9 27.0141 108.9 26.1741C108.9 25.3294 108.727 24.6714 108.382 24.2001C108.036 23.7287 107.514 23.4931 106.814 23.4931C106.459 23.4931 106.149 23.5537 105.883 23.6751C105.621 23.7964 105.402 23.9714 105.225 24.2001C105.052 24.4287 104.921 24.7111 104.833 25.0471C104.749 25.3784 104.707 25.7541 104.707 26.1741C104.707 27.0141 104.879 27.6697 105.225 28.1411C105.575 28.6077 106.104 28.8411 106.814 28.8411ZM121.309 22.6251V29.7161H111.768V22.6251H113.021V28.7711H115.912V22.6251H117.165V28.7711H120.056V22.6251H121.309ZM129.188 22.6251V29.7161H127.935V26.3981H124.533V29.7161H123.28V22.6251H124.533V25.4531H127.935V22.6251H129.188ZM137.251 22.6251V29.7161H136.005V24.9001C136.005 24.8067 136.01 24.7064 136.019 24.5991C136.029 24.4917 136.04 24.3844 136.054 24.2771C136.012 24.3704 135.97 24.4567 135.928 24.5361C135.886 24.6154 135.842 24.6877 135.795 24.7531L132.372 29.4081C132.321 29.4827 132.256 29.5551 132.176 29.6251C132.102 29.6904 132.018 29.7231 131.924 29.7231H131.168V22.6321H132.421V27.4481C132.421 27.5367 132.417 27.6347 132.407 27.7421C132.398 27.8447 132.386 27.9497 132.372 28.0571C132.414 27.9684 132.456 27.8867 132.498 27.8121C132.54 27.7327 132.582 27.6604 132.624 27.5951L136.047 22.9401C136.099 22.8654 136.164 22.7954 136.243 22.7301C136.323 22.6601 136.409 22.6251 136.502 22.6251H137.251ZM144.45 22.6251V29.7161H143.204V26.7061C142.598 26.8647 142.026 26.9651 141.489 27.0071C140.957 27.0444 140.491 27.0024 140.089 26.8811C139.693 26.7597 139.378 26.5474 139.144 26.2441C138.916 25.9361 138.801 25.5114 138.801 24.9701V22.6251H140.054V24.7811C140.054 25.1217 140.122 25.3901 140.257 25.5861C140.397 25.7821 140.6 25.9174 140.866 25.9921C141.132 26.0667 141.461 26.0877 141.853 26.0551C142.245 26.0224 142.696 25.9454 143.204 25.8241V22.6251H144.45ZM151.172 25.3971C151.172 25.1077 151.13 24.8441 151.046 24.6061C150.967 24.3634 150.848 24.1557 150.689 23.9831C150.535 23.8057 150.346 23.6704 150.122 23.5771C149.898 23.4791 149.644 23.4301 149.359 23.4301C148.762 23.4301 148.288 23.6051 147.938 23.9551C147.593 24.3004 147.378 24.7811 147.294 25.3971H151.172ZM152.18 28.7221C152.026 28.9087 151.842 29.0721 151.627 29.2121C151.413 29.3474 151.182 29.4594 150.934 29.5481C150.692 29.6367 150.44 29.7021 150.178 29.7441C149.917 29.7907 149.658 29.8141 149.401 29.8141C148.911 29.8141 148.459 29.7324 148.043 29.5691C147.633 29.4011 147.276 29.1584 146.972 28.8411C146.674 28.5191 146.44 28.1224 146.272 27.6511C146.104 27.1797 146.02 26.6384 146.02 26.0271C146.02 25.5324 146.095 25.0704 146.244 24.6411C146.398 24.2117 146.618 23.8407 146.902 23.5281C147.187 23.2107 147.535 22.9634 147.945 22.7861C148.356 22.6041 148.818 22.5131 149.331 22.5131C149.756 22.5131 150.148 22.5854 150.507 22.7301C150.871 22.8701 151.184 23.0754 151.445 23.3461C151.711 23.6121 151.919 23.9434 152.068 24.3401C152.218 24.7321 152.292 25.1801 152.292 25.6841C152.292 25.8801 152.271 26.0107 152.229 26.0761C152.187 26.1414 152.108 26.1741 151.991 26.1741H147.252C147.266 26.6221 147.327 27.0117 147.434 27.3431C147.546 27.6744 147.7 27.9521 147.896 28.1761C148.092 28.3954 148.326 28.5611 148.596 28.6731C148.867 28.7804 149.17 28.8341 149.506 28.8341C149.819 28.8341 150.087 28.7991 150.311 28.7291C150.54 28.6544 150.736 28.5751 150.899 28.4911C151.063 28.4071 151.198 28.3301 151.305 28.2601C151.417 28.1854 151.513 28.1481 151.592 28.1481C151.695 28.1481 151.774 28.1877 151.83 28.2671L152.18 28.7221ZM159.731 22.6251V29.7161H158.478V26.3981H155.076V29.7161H153.823V22.6251H155.076V25.4531H158.478V22.6251H159.731ZM166.016 22.9751C166.082 22.8724 166.168 22.7884 166.275 22.7231C166.383 22.6577 166.497 22.6251 166.618 22.6251H167.591L165.75 25.3271C165.638 25.4997 165.522 25.6421 165.4 25.7541C165.279 25.8614 165.13 25.9454 164.952 26.0061C165.176 26.0667 165.365 26.1624 165.519 26.2931C165.673 26.4191 165.811 26.5824 165.932 26.7831L167.794 29.7161H166.926C166.702 29.7161 166.53 29.6787 166.408 29.6041C166.287 29.5294 166.182 29.4221 166.093 29.2821L164.714 27.0771C164.495 26.7131 164.166 26.5311 163.727 26.5311H162.964V29.7231H161.711V22.6251H162.964V25.6911H163.636C164.01 25.6911 164.301 25.5324 164.511 25.2151L166.016 22.9751ZM171.673 22.5131C172.191 22.5131 172.658 22.5994 173.073 22.7721C173.488 22.9447 173.843 23.1897 174.137 23.5071C174.431 23.8244 174.655 24.2094 174.809 24.6621C174.968 25.1101 175.047 25.6117 175.047 26.1671C175.047 26.7271 174.968 27.2311 174.809 27.6791C174.655 28.1271 174.431 28.5097 174.137 28.8271C173.843 29.1444 173.488 29.3894 173.073 29.5621C172.658 29.7301 172.191 29.8141 171.673 29.8141C171.15 29.8141 170.679 29.7301 170.259 29.5621C169.844 29.3894 169.489 29.1444 169.195 28.8271C168.901 28.5097 168.675 28.1271 168.516 27.6791C168.362 27.2311 168.285 26.7271 168.285 26.1671C168.285 25.6117 168.362 25.1101 168.516 24.6621C168.675 24.2094 168.901 23.8244 169.195 23.5071C169.489 23.1897 169.844 22.9447 170.259 22.7721C170.679 22.5994 171.15 22.5131 171.673 22.5131ZM171.673 28.8411C172.373 28.8411 172.896 28.6077 173.241 28.1411C173.586 27.6697 173.759 27.0141 173.759 26.1741C173.759 25.3294 173.586 24.6714 173.241 24.2001C172.896 23.7287 172.373 23.4931 171.673 23.4931C171.318 23.4931 171.008 23.5537 170.742 23.6751C170.481 23.7964 170.261 23.9714 170.084 24.2001C169.911 24.4287 169.781 24.7111 169.692 25.0471C169.608 25.3784 169.566 25.7541 169.566 26.1741C169.566 27.0141 169.739 27.6697 170.084 28.1411C170.434 28.6077 170.964 28.8411 171.673 28.8411Z" fill="black"/>
<mask id="mask0_1014_149" style="mask-type:alpha" maskUnits="userSpaceOnUse" x="18" y="0" width="51" height="51">
<circle cx="43.6414" cy="25.3241" r="25.3241" fill="#C4C4C4"/>
</mask>
<g mask="url(#mask0_1014_149)">
<path d="M68.9655 0H18.3173V50.6482H68.9655V0Z" fill="url(#paint0_radial_1014_149)"/>
<path d="M68.9655 46.2797C66.4286 44.8519 61.1734 42.1432 54.3196 39.9411L54.1598 39.8896L54.1286 40.0549C53.9872 40.805 53.4906 42.7383 51.939 44.4875C49.9838 46.6911 47.1007 47.8085 43.3693 47.8085C38.8709 47.8085 34.5084 44.5682 33.4385 40.4322L33.399 40.2792L33.2486 40.3282C25.3754 42.9086 19.9356 46.0742 18.3801 46.9981L18.3173 47.0352V50.6563H68.9655V46.2797Z" fill="#81FF1E"/>
<path d="M35.7766 39.7118C35.7766 39.7118 34.1285 45.7341 43.403 46.2495C49.6593 46.2495 53.3398 42.5655 51.9464 40.0059C49.2968 40.1267 47.7373 42.6205 44.1321 42.6378C40.5268 42.6551 38.0068 39.1281 35.7766 39.7118Z" fill="#E3C8A5"/>
<g style="mix-blend-mode:multiply">
<path d="M37.2638 38.9999C37.2638 38.9999 33.0087 43.2755 43.4267 45.0122C52.764 45.6217 52.1215 38.7766 49.6786 38.8929C47.2357 39.0093 47.1551 41.2134 43.8313 41.2169C40.508 41.2203 39.318 38.3954 37.2638 38.9999Z" fill="#DCC8B9"/>
</g>
<path d="M31.6179 22.2485C31.6179 22.2485 30.2463 21.1801 29.6948 22.0658C29.1434 22.9515 28.3376 27.7177 30.416 29.405C31.4764 29.6159 31.929 29.4614 31.929 29.4614C31.929 29.4614 31.7326 31.8809 31.3068 35.9011C30.8542 40.1752 39.3239 44.1265 43.0147 44.3795C46.705 44.6325 52.856 41.9333 54.8073 38.9385C56.7585 35.9437 56.3485 34.7485 55.1609 28.956C54.7365 27.1845 56.4113 30.4556 57.6073 27.2548C58.9363 23.6976 57.8002 19.1908 55.2598 21.7574C55.5566 20.6607 56.0146 17.0604 55.797 15.4583C55.5423 13.5814 54.0011 10.5094 49.2503 10.1297C46.1748 9.88411 33.1453 8.26665 31.0664 16.703C31.2573 18.9581 31.5754 19.9493 31.6179 22.2485Z" fill="#EFCB9C"/>
<g style="mix-blend-mode:multiply">
<path d="M33.4297 19.9424C33.4297 19.9424 35.8177 12.8562 37.9529 12.2937C38.7116 12.4344 45.5383 16.0619 50.5665 12.2937C49.4709 12.0967 45.8469 12.8562 43.178 12.0967C40.509 11.3372 37.4751 10.4377 37.4751 10.4377C37.4751 10.4377 35.0871 11.5343 34.1602 14.8246C33.2333 18.115 33.0365 20.4207 33.4297 19.9424Z" fill="#DCC8B9"/>
</g>
<path d="M55.2014 8.27064C53.8951 8.07805 52.6457 7.83991 51.3825 7.54186C51.2692 7.51513 51.2455 7.41215 51.2569 7.34828L51.2623 7.3166C51.3746 6.64773 51.563 5.52883 50.5896 5.23821C50.2622 5.14068 49.5603 5.29861 48.9406 5.43823C48.6567 5.50209 48.3881 5.56249 48.2244 5.58032C47.1066 5.69666 45.9408 5.74568 44.6597 5.73083C44.0078 5.7229 43.3337 5.69518 42.6818 5.66894C40.4709 5.57834 38.1848 5.48526 36.1326 6.11056C33.9613 6.77447 32.5027 8.28301 31.7974 10.5951C31.2726 12.3135 31.1435 14.4375 31.3908 17.2793L31.4101 17.5006L34.2308 12.9784C34.4846 12.5715 34.8348 12.2244 35.2433 11.9739L35.5416 11.7912C35.6148 11.7462 35.685 11.6902 35.7503 11.6234C36.237 11.1283 36.829 10.708 37.5091 10.3743C37.5438 10.3574 37.5764 10.3569 37.6066 10.3733C37.6372 10.3896 37.66 10.4218 37.6639 10.4525L37.6867 10.6322L37.7965 10.4886C37.8099 10.4713 37.8385 10.4693 37.8751 10.4832C40.8883 11.5615 44.1537 12.1615 46.9597 12.1615C47.206 12.1615 47.4493 12.1571 47.6882 12.1477C49.4491 12.0789 50.968 11.758 52.2021 11.1936C53.5949 10.557 54.6227 9.60985 55.2563 8.37857L55.3038 8.28598L55.2014 8.27064Z" fill="white"/>
<path d="M50.006 12.0601C50.006 12.0601 52.4222 11.8353 53.2086 15.3782C53.995 18.9215 53.9441 22.1005 53.9441 22.1005L55.7371 19.9335C55.7371 19.9335 56.016 12.5745 54.0514 11.5536C51.6357 10.4852 50.006 12.0601 50.006 12.0601Z" fill="#845F34"/>
<path d="M31.8301 21.2642L33.263 20.083C33.263 20.083 33.6824 15.8673 34.4194 14.2483C35.926 10.9391 37.6611 10.5772 37.6611 10.5772C37.6611 10.5772 47.4727 13.58 51.2827 11.9011C55.3192 10.1227 53.911 8.35676 53.911 8.35676C53.911 8.35676 51.3826 8.18793 50.3711 7.51313C49.3596 6.83832 50.7084 5.82586 50.7084 5.82586C50.7084 5.82586 37.8139 4.22276 33.8526 8.2721C29.8912 12.3214 31.8301 21.2642 31.8301 21.2642Z" fill="#845F34"/>
<g style="mix-blend-mode:multiply">
<path d="M33.0433 22.2089C33.0433 22.2089 34.5667 20.0132 38.5677 20.0968C40.5634 20.1384 42.0967 20.4107 42.3064 20.9959C42.5166 21.5816 42.8104 23.7773 42.6428 23.861C42.4746 23.9447 41.8024 24.0912 41.4453 21.8326C41.2712 20.7301 37.6012 20.7662 36.0466 21.9371C34.4921 23.108 33.715 25.5339 33.5261 25.1992C33.2169 24.6527 34.7863 23.0243 34.7443 22.146C34.7028 21.2682 33.1274 22.8367 33.0433 22.2089Z" fill="#DCC8B9"/>
</g>
<g style="mix-blend-mode:multiply">
<path d="M44.6667 25.2215C44.6667 25.2215 43.2902 21.5034 45.2849 20.536C47.2797 19.5681 51.3528 19.6448 52.2239 20.0013C53.0949 20.3577 53.9936 20.8414 53.5163 21.0707C53.0385 21.2999 51.9429 20.9944 52.4489 21.6816C52.9544 22.3693 52.533 23.1842 52.533 23.1842C52.533 23.1842 51.2688 21.1979 49.4145 21.0959C46.5239 20.937 45.4675 21.898 45.2424 22.7386C45.0179 23.5793 46.0714 25.3745 44.6667 25.2215Z" fill="#DCC8B9"/>
</g>
<g style="mix-blend-mode:multiply">
<path d="M42.113 39.3608C42.1704 39.2553 43.3317 39.7499 44.0563 39.7079C44.7814 39.6658 45.9581 39.1083 46.0733 39.2766C46.1891 39.445 45.4323 40.402 44.0984 40.4124C42.7644 40.4228 41.924 39.7079 42.113 39.3608Z" fill="#DCC8B9"/>
</g>
<g style="mix-blend-mode:multiply">
<path d="M41.9212 31.6453C42.2926 31.1552 43.1705 32.4766 43.9575 32.4206C44.7444 32.3642 46.0952 31.3077 46.2203 31.5329C46.3455 31.7582 45.5249 33.039 44.0767 33.0533C42.6284 33.0672 41.6145 32.0498 41.9212 31.6453Z" fill="#DCC8B9"/>
</g>
<g style="mix-blend-mode:multiply">
<path d="M55.1935 22.1465C55.2054 22.4777 55.5828 22.5926 55.7836 22.3396C55.9844 22.0866 56.5646 22.0683 56.9375 22.3317C57.31 22.595 57.5286 23.0322 57.5538 23.8135C57.5791 24.5947 57.443 25.0715 57.398 25.2705C57.353 25.469 57.3763 25.6235 57.5751 25.2507C57.7744 24.8779 57.9683 24.1462 58.0727 23.8115C58.177 23.4768 58.0613 22.5851 57.9817 22.299C57.902 22.0123 57.3871 21.3593 57.3179 21.2836C57.2487 21.2083 56.9113 21.0429 56.802 21.0182C56.6922 20.9934 55.9028 21.1731 55.7084 21.3979C55.5136 21.6222 55.1935 22.1465 55.1935 22.1465Z" fill="#DCC8B9"/>
</g>
<g style="mix-blend-mode:multiply">
<path d="M31.9433 22.6466C31.9289 22.9669 31.5515 23.0812 31.3527 22.8377C31.1539 22.5946 30.5747 22.5812 30.2007 22.8387C29.8268 23.0961 29.6057 23.5209 29.5751 24.2774C29.5444 25.0339 29.6765 25.4938 29.72 25.6859C29.7635 25.878 29.7393 26.0275 29.5434 25.6681C29.347 25.3087 29.1591 24.6022 29.0572 24.2789C28.9558 23.9561 29.0775 23.0921 29.1591 22.8144C29.2407 22.5366 29.7595 21.901 29.8293 21.8267C29.899 21.7534 30.2369 21.5905 30.3467 21.5658C30.4565 21.541 31.2434 21.7094 31.4358 21.9252C31.6277 22.1416 31.9433 22.6466 31.9433 22.6466Z" fill="#DCC8B9"/>
</g>
<path opacity="0.3" d="M33.5938 29.6516C34.2744 30.2893 35.781 30.0125 35.8458 31.0215C35.9106 32.031 34.4525 32.0404 33.7669 33.5242C33.0814 35.008 33.536 38.3716 34.5519 39.143C36.745 40.8075 38.5276 41.2322 38.4583 41.5387C38.3891 41.8452 36.6401 41.4159 35.368 40.8357C34.0959 40.2554 32.1451 39.1846 31.8934 37.8399C31.6411 36.4957 31.4259 34.3401 31.5001 33.3623C31.5743 32.3845 32.0828 30.919 32.1837 29.6838C32.3064 28.1812 32.1377 25.8755 32.1377 25.8755C32.1377 25.8755 32.1006 28.2535 33.5938 29.6516Z" fill="white"/>
<path opacity="0.3" d="M55.8261 32.0003C56.5314 33.9148 56.1471 36.9507 55.5724 37.9433C54.9976 38.936 53.3753 40.5351 52.9361 40.9268C52.4969 41.3189 49.2972 43.2274 48.1092 43.5205C46.9211 43.8136 45.2177 44.0602 44.8873 43.0383C44.5569 42.016 48.7482 41.2327 50.1954 40.799C54.3868 39.542 55.0891 35.5912 54.2463 32.9335C53.9728 32.0716 53.1537 28.4495 54.0217 28.2653C55.9581 27.8554 55.0614 29.9249 55.8261 32.0003Z" fill="white"/>
<path d="M45.8459 31.7136C48.73 32.2097 47.078 29.5848 45.5689 31.1076C44.6791 32.0052 44.0895 32.8504 42.9915 31.7136C42.8545 31.5716 42.4652 31.2126 42.3238 31.1076C40.6935 29.8972 40.3572 31.0319 40.3572 31.0319C40.049 32.4419 42.3238 31.5874 42.3238 31.5874C42.3238 31.5874 43.1849 32.5791 44.0628 32.5791C44.9408 32.5786 45.8459 31.7136 45.8459 31.7136Z" fill="#222221"/>
<path d="M57.1141 24.0942C57.2061 24.5541 57.1145 25.4057 56.8247 25.825C56.7441 25.9453 56.6447 25.8364 56.6763 25.6547C56.752 25.2017 56.8529 24.8631 56.7881 24.4318C56.4691 24.6111 56.1783 24.9903 55.9893 25.6042C55.8884 25.928 55.6564 25.7463 55.7633 25.4334C55.9854 24.7834 56.3029 24.2551 56.6615 24.0912C56.5744 23.8887 56.4805 23.7724 56.3167 23.7709C56.2015 23.7758 56.2391 23.4035 56.3548 23.3684C56.6793 23.2753 57.0102 23.5724 57.1141 24.0942Z" fill="#222221"/>
<path d="M31.6763 25.6933C31.7361 25.9572 31.469 26.0903 31.4013 25.8438C31.195 25.115 30.9289 24.7838 30.69 25.1715C30.6668 25.671 30.7578 26.2468 30.915 26.7617C30.9818 26.9771 30.6855 27.1187 30.6148 26.9196C30.3631 26.2265 30.3151 25.3462 30.3848 24.66C30.4457 24.054 30.6855 23.3495 31.0159 23.3703C31.1386 23.3763 31.2286 23.7223 31.1277 23.8421C30.9452 24.062 30.7864 24.2352 30.6974 24.6179C31.009 24.4135 31.4898 24.8828 31.6763 25.6933Z" fill="#222221"/>
<path d="M42.6339 22.1723C42.4608 22.0312 42.1299 21.9698 41.9044 21.9064C41.6046 21.8217 41.298 21.7539 40.9883 21.6995C40.3829 21.593 39.7637 21.5351 39.1454 21.5133C37.3218 21.4494 35.3992 21.6509 33.6498 22.0955C33.5247 22.1272 33.4327 22.2223 33.4327 22.3327C33.4327 22.8624 33.4327 23.3922 33.4327 23.9219C33.4297 23.9368 33.4317 23.9531 33.4327 23.969C33.4327 23.9704 33.4327 23.9719 33.4327 23.9729C33.4327 23.9754 33.4341 23.9774 33.4341 23.9798C33.4361 23.9992 33.4346 24.0175 33.443 24.0383C33.446 24.0452 33.4505 24.0511 33.4534 24.0581C33.4584 24.0695 33.4633 24.0803 33.4702 24.0903C33.8199 24.868 34.7577 25.4488 35.6376 25.7592C36.7604 26.1553 38.0053 26.2285 39.2117 26.1701C40.1124 26.1266 41.114 26.0206 41.8895 25.6037C42.2333 25.4191 42.5568 25.1547 42.67 24.8175C42.6824 24.7804 42.715 24.5848 42.7022 24.6606C42.6913 24.7264 42.7254 24.5388 42.7314 24.5051C42.7566 24.3616 42.7793 24.2175 42.7996 24.0734C42.8516 23.707 42.8931 23.3357 42.8807 22.9664C42.8723 22.7189 42.8654 22.3609 42.6339 22.1723ZM34.0277 23.9358C34.0321 23.9442 34.0336 23.9462 34.0277 23.9358V23.9358ZM42.2714 23.4768C42.2417 23.8665 42.1927 24.2611 42.1116 24.6462C42.1116 24.6324 42.0715 24.7695 42.0651 24.7824C42.028 24.8547 41.9148 24.9834 41.8188 25.0606C41.3316 25.4532 40.5758 25.5933 39.9294 25.675C38.7374 25.8265 37.4415 25.8206 36.2757 25.5463C35.4848 25.3602 34.7389 25.0304 34.1884 24.515C34.044 24.3799 33.8758 23.9328 33.8758 23.9328C33.8758 23.4466 33.8758 22.9605 33.8758 22.4743C35.0772 22.1871 36.1946 22.0232 37.4365 21.9569C38.5939 21.8955 39.7721 21.9232 40.9067 22.1371C41.2451 22.201 42.0948 22.3 42.2402 22.5589C42.3767 22.8035 42.2912 23.2169 42.2714 23.4768Z" fill="#222221"/>
<path d="M44.3971 22.2485C44.5712 22.1074 44.9036 22.046 45.1301 21.9827C45.4313 21.898 45.7395 21.8302 46.0506 21.7757C46.6589 21.6693 47.2812 21.6114 47.9024 21.5896C49.7349 21.5257 51.6669 21.7272 53.4247 22.1718C53.5504 22.2035 53.6433 22.2985 53.6433 22.4089C53.6433 22.9387 53.6661 23.616 53.6661 24.1457C53.6691 24.1606 53.6671 24.1769 53.6661 24.1928C53.6661 24.1942 53.6661 24.1957 53.6661 24.1967C53.6661 24.1992 53.6646 24.2012 53.6646 24.2036C53.6621 24.223 53.6641 24.2413 53.6557 24.2621C53.6527 24.269 53.6483 24.2749 53.6453 24.2819C53.6404 24.2933 53.6349 24.3041 53.6285 24.314C53.2773 25.0918 52.3119 25.525 51.4275 25.835C50.2993 26.231 49.0479 26.3043 47.8361 26.2459C46.9315 26.2023 45.9249 26.0964 45.1454 25.6795C44.8002 25.4948 44.4752 25.2305 44.361 24.8933C44.3486 24.8562 44.3155 24.6606 44.3283 24.7364C44.3397 24.8022 44.3051 24.6146 44.2991 24.5809C44.2739 24.4373 44.2512 24.2933 44.2304 24.1492C44.1785 23.7828 44.1364 23.4115 44.1488 23.0422C44.1577 22.7951 44.1646 22.4372 44.3971 22.2485ZM53.0459 24.012C53.0394 24.0224 53.0409 24.0205 53.0459 24.012V24.012ZM44.7616 23.5531C44.7918 23.9427 44.8407 24.3373 44.9224 24.7225C44.9224 24.7086 44.9624 24.8458 44.9693 24.8586C45.0064 24.9309 45.1202 25.0597 45.2166 25.1369C45.7063 25.5295 46.4655 25.6696 47.115 25.7513C48.3129 25.9028 49.6152 25.8969 50.7865 25.6226C51.5813 25.4364 52.3307 25.1067 52.8841 24.5913C53.029 24.4561 53.1562 24.3086 53.2615 24.1497C53.2922 24.1036 53.3184 24.0561 53.3461 24.0091C53.3461 23.5229 53.3461 23.0367 53.3461 22.5505C52.1387 22.2634 50.8686 22.0995 49.6202 22.0332C48.4569 21.9718 47.2732 21.9995 46.1332 22.2134C45.7929 22.2773 44.9392 22.3763 44.7933 22.6352C44.6558 22.8798 44.7418 23.2932 44.7616 23.5531Z" fill="#222221"/>
<path d="M45.4512 39.1984C45.7678 39.1727 45.842 39.5915 45.5249 39.6578C44.6252 39.8391 43.3857 39.8811 42.5409 39.5331C42.4034 39.4752 42.399 39.235 42.5785 39.2286C43.0054 39.2083 43.4302 39.2831 43.863 39.2905C44.3967 39.3068 44.9205 39.241 45.4512 39.1984Z" fill="#222221"/>
<path d="M40.4254 27.9648C40.3131 27.8346 36.5991 30.966 37.7496 31.5309C39.3833 28.7728 40.8993 28.2668 40.4254 27.9648Z" fill="#222221"/>
<path d="M47.625 27.8648C47.7086 27.7807 51.2287 31.4513 50.0214 31.6513C48.6048 28.7575 47.1264 28.1292 47.625 27.8648Z" fill="#222221"/>
<path d="M42.6719 22.9654C42.6719 22.9654 43.536 21.8688 44.2522 22.8179C44.9684 23.767 43.9574 22.86 43.6414 22.9233C43.3253 22.9862 42.3771 23.9353 42.6719 22.9654Z" fill="#222221"/>
<path d="M53.4738 22.4312L55.3702 20.28L55.3281 21.0251L53.5441 22.7262L53.4738 22.4312Z" fill="#222221"/>
<path d="M33.6122 22.2272L31.7158 21.0885L31.6951 21.6365L33.6122 22.6277V22.2272Z" fill="#222221"/>
<path d="M33.9464 20.6305C33.9464 20.6305 34.8417 19.6413 35.8705 19.5077C36.8998 19.374 42.8069 19.5879 43.4558 20.4969C43.5003 21.3791 43.2768 21.6465 42.1802 21.0316C41.0837 20.4167 36.743 20.283 36.139 20.4701C35.5351 20.6573 33.387 22.0475 33.9464 20.6305Z" fill="#222221"/>
<path d="M43.7818 20.936C43.7724 20.5712 44.5732 20.031 45.1158 19.827C45.6584 19.6231 50.9933 19.3295 51.5809 19.4874C52.1685 19.6458 53.7057 20.2796 53.4797 20.845C53.2536 21.4108 52.3945 20.4152 51.4453 20.3018C50.4957 20.1885 46.0199 20.5731 45.5451 20.7771C45.0703 20.9811 43.8041 21.796 43.7818 20.936Z" fill="#222221"/>
<path opacity="0.3" d="M44.0376 24.5898C44.0376 24.5898 44.2938 27.7316 44.3581 28.8857C44.4199 30.0036 44.6509 30.1378 44.9986 29.8476C45.7673 29.2065 46.7283 29.5912 46.344 28.95C45.5501 27.6257 44.6786 26.1285 44.0376 24.5898Z" fill="white"/>
<g style="mix-blend-mode:multiply">
<path d="M33.7057 40.7475C33.7057 40.7475 27.0432 47.4421 43.3545 50.1607C57.9733 51.1147 56.9672 40.398 53.1429 40.5797C52.495 42.9819 48.8947 47.3827 43.6909 47.3882C38.4871 47.3936 35.4309 43.4275 33.7057 40.7475Z" fill="#CCCCCC"/>
</g>
<path d="M54.9757 39.2588C54.989 39.243 55.0024 39.2266 55.0152 39.2108C57.6545 35.9234 55.4544 32.437 55.4401 28.5164C55.4371 28.4961 55.4376 28.4758 55.4386 28.455C55.4371 28.152 54.9564 28.152 54.9583 28.455C54.987 32.0013 56.7266 35.0288 55.0197 37.9815C53.0719 41.3511 47.4843 43.9765 43.8103 43.8235C40.5058 43.6874 34.5803 41.262 32.5312 38.5018C30.478 35.7348 32.9808 32.4097 32.2008 29.1392C32.1196 28.9961 31.9777 29.1184 31.7744 29.2139C31.0874 29.5372 30.8643 29.3565 30.2747 28.8258C29.7425 28.346 28.8191 24.8022 29.426 23.512C29.9537 22.3901 30.4627 21.2727 31.538 22.3347C31.5785 22.3753 31.9732 22.5763 31.9708 22.4233C31.9638 22.1252 31.904 21.0618 31.9005 21.0296C31.3362 16.4268 29.8776 8.10033 36.1537 6.18136C38.8028 5.37387 41.818 5.77044 44.6585 5.8051C45.8605 5.81896 47.0525 5.77688 48.2321 5.65409C48.7391 5.59963 50.1067 5.17138 50.5687 5.30951C51.4931 5.58528 51.2987 6.65219 51.184 7.33591C51.1647 7.44038 51.2156 7.579 51.3655 7.61415C52.6342 7.91319 53.9028 8.1543 55.1908 8.34441C52.5417 13.4929 43.5902 12.4502 37.9002 10.4134C37.8235 10.3837 37.7661 10.406 37.7374 10.4436C37.7246 10.3421 37.6069 10.2436 37.4763 10.3074C33.1252 12.4403 33.8265 17.21 32.9115 20.9504C32.9115 20.9504 32.9175 21.0865 33.0787 21.1801C33.2122 21.2573 33.3577 21.0662 33.3577 21.0662C33.5778 20.1657 33.9794 17.0728 33.9571 17.1352C34.3142 14.5212 34.9261 11.9739 37.6613 10.5783C37.6835 10.5669 37.6994 10.552 37.7122 10.5372C37.7186 10.5852 37.7503 10.6327 37.8176 10.659C41.5662 12.2398 47.3557 13.4037 50.9545 12.2873C52.4368 13.3721 52.7459 14.8994 53.0299 16.3936C53.1065 16.7882 53.1669 17.1813 53.2242 17.5744L53.9414 21.4326C53.935 19.4839 53.7376 17.5259 53.2974 15.5757C53.0135 14.3276 52.6025 12.9507 51.2161 12.2012C52.096 11.9026 52.9057 11.4957 53.6194 10.9654C56.4209 13.9498 55.5044 17.8808 55.2017 19.9706C55.1799 19.9973 54.9539 21.2281 54.9262 21.6653C54.9143 21.8391 55.2769 21.9648 55.3506 21.9411C56.0178 21.7099 56.3576 21.3182 57.0822 21.3593C57.9517 21.4069 57.834 24.2952 57.8587 25.1186C57.9092 26.7246 57.1104 28.9803 55.8086 28.3302C55.6449 28.2485 55.496 28.3777 55.492 28.5173C55.4901 28.5787 55.5192 28.6431 55.587 28.6911C57.0782 29.7224 58.2747 26.9702 58.3187 25.2141C58.3385 24.4111 58.2856 21.1336 57.5457 20.7796C56.6692 20.3612 56.2577 20.7865 55.4614 21.3004C55.4658 21.238 55.4722 21.1717 55.4797 21.1039C56.4432 17.9982 56.78 13.4919 53.8771 10.7634C54.6838 10.1079 55.3501 9.28013 55.8214 8.26371C55.8852 8.12311 55.7225 7.98646 55.5662 7.96666C54.7056 7.84635 52.2385 7.75278 51.7538 7.06064C51.7092 6.99628 51.7444 6.25117 51.728 6.15215C51.6642 5.73479 51.5114 5.34268 51.3234 4.94265C51.2755 4.83571 51.1479 4.73917 51.0049 4.76788C47.6134 5.45309 44.2599 5.29515 40.7407 5.25208C38.417 5.22237 36.0197 5.40358 34.1649 6.51951C29.5833 9.27914 30.7778 16.5495 31.4262 20.8954C31.4188 21.0851 31.4277 21.3366 31.4628 21.6811C30.2906 20.381 29.0229 22.2787 28.7236 23.7056C27.9506 27.3935 30.1679 30.5908 31.767 29.6823C31.9762 31.6493 30.1348 37.0349 32.3477 39.2351C32.5109 39.3974 32.7186 39.5811 32.963 39.7792C31.5909 40.2297 23.2023 43.0492 18.3224 46.1841V47.11C19.8736 46.1965 25.5467 43.0106 33.2948 40.4718C34.426 44.8424 38.9304 47.9575 43.3696 47.9575C52.2627 47.9575 53.9899 41.5927 54.2748 40.0826C61.3225 42.3472 66.7172 45.1806 68.9628 46.4485V45.4831C64.0701 42.521 56.457 39.7796 54.9757 39.2588ZM43.419 46.0267C37.9313 46.0267 35.9202 42.1095 35.6996 41.6417C38.1633 43.1022 41.3496 44.5196 43.7133 44.5196C46.7458 44.5196 49.9459 43.0958 52.2419 41.5724C51.1652 43.9701 49.1556 46.0267 43.419 46.0267Z" fill="#222221"/>
<circle cx="43.6414" cy="25.3241" r="24.3241" stroke="black" stroke-width="2"/>
<path d="M40.1076 23.3106C40.0664 23.429 40.1021 23.5649 40.1984 23.6407C40.2717 23.6978 40.3605 23.734 40.4543 23.7495C40.6149 23.7761 40.7097 23.9176 40.661 24.04C40.3981 24.7051 39.5547 25.1696 38.5948 25.0698C37.7524 24.982 37.0705 24.4362 36.9742 23.7746C36.9255 23.439 36.9034 22.7844 37.2155 22.8571C37.3695 22.8932 38.1247 22.9981 38.8246 22.9981C39.4217 22.9981 40.2797 22.6304 40.3595 22.7568C40.367 22.7688 40.3745 22.7799 40.3825 22.7914C40.4528 22.8882 40.4157 23.0247 40.3073 23.0678C40.227 23.0999 40.1578 23.1671 40.1076 23.3106Z" fill="white"/>
<path d="M37.4167 22.9961C37.3369 23.1862 37.3394 23.4109 37.382 23.6688C37.4578 24.1253 37.7333 24.6916 38.6118 24.7974C39.8005 24.9424 40.1843 24.1488 40.2947 23.8007C40.3123 23.7455 40.3675 23.7049 40.4382 23.6929C40.5105 23.6788 40.5882 23.6909 40.6429 23.7265C40.6896 23.7566 40.7132 23.8007 40.7076 23.8464C40.658 24.2793 40.3945 24.6695 39.9841 24.9183C39.5927 25.1556 39.098 25.2489 38.5546 25.1892C37.5376 25.0768 36.9069 24.4734 36.8241 23.5323C36.8 23.2534 36.8447 23.0086 36.9565 22.7995C37.2054 22.335 37.5321 22.7212 37.4167 22.9961Z" fill="black"/>
<path d="M38.8752 22.9073C38.4497 22.9299 38.0683 23.3994 38.1943 23.88C38.2113 23.9356 38.2319 23.9918 38.2625 24.04C38.2831 24.1478 38.3202 24.2522 38.3885 24.3379C38.5586 24.5577 38.8104 24.6138 39.0417 24.5501C39.2324 24.498 39.4095 24.3711 39.5214 24.1925C39.7969 23.749 39.552 23.0969 39.0959 22.9404L38.8752 22.9073ZM39.0628 23.742C39.0663 23.7977 39.0222 23.8689 38.971 23.9136C38.9163 23.9136 38.8586 23.9025 38.8074 23.8765C38.8109 23.8208 38.7984 23.7114 38.839 23.6778C38.8767 23.6482 38.9559 23.6437 38.9765 23.595C39.0141 23.6322 39.0593 23.6788 39.0628 23.742Z" fill="black"/>
<path d="M37.1457 22.8878C37.1723 22.9585 37.231 23.0091 37.3022 23.0242C37.7518 23.118 39.5014 23.43 40.403 22.8095C40.6514 22.6655 40.6961 22.3856 40.1466 22.5341C39.6519 22.668 38.2575 22.812 37.396 22.513C37.0945 22.4082 36.9194 22.7082 36.9685 22.8888C36.9796 22.9279 37.1336 22.8561 37.1457 22.8878Z" fill="black"/>
<path d="M48.8601 25.1451C47.9951 25.1968 47.1652 24.5522 46.9525 23.8604C46.9871 23.8655 47.0227 23.8675 47.0593 23.8655C47.3227 23.8499 47.3564 23.6568 47.3544 23.425C47.3523 23.1933 47.2666 22.965 47.0031 22.9806C46.9665 22.9826 47.1381 22.7493 47.1035 22.7584C47.6554 22.9249 47.8942 22.9766 48.7593 22.9249C49.7848 22.8637 50.6945 22.499 50.703 23.401C50.7106 24.3034 49.8857 25.0844 48.8601 25.1451Z" fill="white"/>
<path d="M50.7517 23.6492C50.6579 24.5105 49.7562 25.2123 48.6393 25.2695C48.0367 25.3026 47.4728 25.1235 47.1311 24.7894C46.8757 24.5396 46.7698 24.2231 46.833 23.8955C46.8451 23.8373 46.8923 23.7907 46.9585 23.7711C47.0262 23.7505 47.1055 23.7591 47.1592 23.7927C47.2043 23.8208 47.2294 23.8649 47.2284 23.9126C47.2204 24.6229 47.8932 24.7864 48.1833 24.8235C48.9359 24.9203 49.9113 24.5747 50.1622 23.906C50.2811 23.5905 50.251 23.275 50.0809 22.9901C50.0131 22.8767 50.2921 22.3294 50.5761 22.8366C50.7176 23.0904 50.7828 23.3678 50.7517 23.6492Z" fill="black"/>
<path d="M48.672 24.5346C48.2575 24.6369 47.3042 24.1373 48.0538 23.0949C48.1496 22.962 48.3052 22.9073 48.4517 22.8807C48.7793 22.8215 49.1346 22.9871 49.2851 23.3869C49.4838 23.9065 49.1883 24.4072 48.672 24.5346ZM48.4903 23.6908C48.4065 23.7059 48.3529 23.8052 48.3709 23.9116C48.3895 24.0179 48.4728 24.0921 48.5571 24.0771C48.6409 24.062 48.6945 23.9627 48.6765 23.8564C48.6579 23.75 48.5746 23.6753 48.4903 23.6908Z" fill="black"/>
<path d="M50.2677 22.9625C50.2401 23.0367 50.1809 23.0909 50.1096 23.1059C49.6591 23.2038 47.9059 23.5263 47.0103 22.8677C46.7635 22.7147 46.7213 22.4182 47.2692 22.5772C47.7624 22.7207 49.1558 22.8782 50.0203 22.5652C50.3229 22.4558 50.4955 22.7734 50.4443 22.9635C50.4333 23.0056 50.2797 22.9294 50.2677 22.9625Z" fill="black"/>
<path d="M54.9925 38.416H32.8963L33.5592 37.4218L32.9515 36.7592L33.5592 36.0414L32.8963 35.4891L33.5592 34.6052L32.7855 33.9977L33.6144 33.3351L32.8858 32.7276H55.1475L54.4124 33.5062L55.1475 34.219L54.3071 34.9368L55.1475 35.7098L54.5173 36.3173L55.1475 37.0356L54.4571 37.7338L54.9925 38.416Z" fill="white"/>
<path d="M34.7052 35.4294C34.8442 35.477 34.9089 35.5683 34.9089 35.785V36.856C34.9089 37.0772 35.0128 37.2031 35.2385 37.2031H35.3554V37.4589H35.1949C34.8045 37.4589 34.6008 37.2683 34.6008 36.8821V35.7805C34.6008 35.6245 34.5316 35.5593 34.4056 35.5593H34.2581V35.2989H34.4056C34.5316 35.2989 34.6008 35.2337 34.6008 35.0777V33.9766C34.6008 33.5909 34.8045 33.3998 35.1949 33.3998H35.3554V33.6556H35.2385C35.0128 33.6556 34.9089 33.7815 34.9089 34.0027V35.0737C34.9094 35.2904 34.8442 35.3817 34.7052 35.4294Z" fill="#24242E"/>
<path d="M53.253 35.4294C53.114 35.3817 53.0493 35.2904 53.0493 35.0737V34.0027C53.0493 33.7815 52.9454 33.6556 52.7196 33.6556H52.6027V33.3998H52.7633C53.1536 33.3998 53.3574 33.5904 53.3574 33.9766V35.0782C53.3574 35.2342 53.4266 35.2994 53.5525 35.2994H53.7V35.5598H53.5525C53.4266 35.5598 53.3574 35.625 53.3574 35.781V36.8826C53.3574 37.2683 53.1536 37.4594 52.7633 37.4594H52.6027V37.2036H52.7196C52.9454 37.2036 53.0493 37.0777 53.0493 36.8565V35.7855C53.0493 35.5683 53.114 35.477 53.253 35.4294Z" fill="#24242E"/>
<path d="M35.9887 35.1891C35.933 35.1891 35.8924 35.163 35.8663 35.1299C35.8512 35.1078 35.8326 35.0742 35.8326 35.0225C35.8326 34.9708 35.8512 34.9372 35.8663 34.9152C35.8924 34.8816 35.933 34.856 35.9887 34.856H36.4744C36.5818 34.856 36.66 34.9302 36.66 35.0265V36.4135H37.0012C37.0569 36.4135 37.0976 36.4396 37.1236 36.4727C37.1387 36.4948 37.1573 36.5284 37.1573 36.5801C37.1573 36.6322 37.1387 36.6653 37.1236 36.6874C37.0976 36.721 37.0569 36.7466 37.0012 36.7466H35.9887C35.933 36.7466 35.8924 36.7205 35.8663 36.6874C35.8512 36.6653 35.8326 36.6317 35.8326 36.5801C35.8326 36.5284 35.8512 36.4948 35.8663 36.4727C35.8924 36.4391 35.933 36.4135 35.9887 36.4135H36.3264V35.1896H35.9887V35.1891ZM36.5115 34.0097C36.5858 34.0097 36.6635 34.0875 36.6635 34.1803V34.3212C36.6635 34.4216 36.5782 34.4883 36.4779 34.4883H36.3479C36.2366 34.4883 36.1588 34.4176 36.1588 34.3212V34.1803C36.1588 34.084 36.2406 34.0097 36.3479 34.0097H36.5115Z" fill="#FF4000"/>
<path d="M37.8783 34.1507L38.2902 34.7366L38.7022 34.1507H39.1176V36.5906C39.1176 36.6463 39.0915 36.6869 39.0584 36.713C39.0363 36.7275 39.0027 36.7466 38.951 36.7466C38.8993 36.7466 38.8657 36.728 38.8437 36.713C38.81 36.6869 38.7844 36.6463 38.7844 36.5906V34.6328L38.4578 35.0777V35.1815C38.4578 35.2372 38.4317 35.2778 38.3986 35.3039C38.3765 35.319 38.3429 35.3375 38.2912 35.3375C38.239 35.3375 38.2059 35.319 38.1839 35.3039C38.1502 35.2778 38.1246 35.2372 38.1246 35.1815V35.0777L37.798 34.6328V36.5906C37.798 36.6463 37.7719 36.6869 37.7388 36.713C37.7167 36.7275 37.6831 36.7466 37.6314 36.7466C37.5797 36.7466 37.5461 36.728 37.5241 36.713C37.4904 36.6869 37.4648 36.6463 37.4648 36.5906V34.1507H37.8783Z" fill="black"/>
<path d="M39.665 35.1891C39.6093 35.1891 39.5687 35.163 39.5426 35.1299C39.5275 35.1078 39.509 35.0742 39.509 35.0225C39.509 34.9708 39.5275 34.9372 39.5426 34.9152C39.5687 34.8816 39.6093 34.856 39.665 34.856H40.1507C40.2581 34.856 40.3364 34.9302 40.3364 35.0265V36.4135H40.6776C40.7332 36.4135 40.7739 36.4396 40.8 36.4727C40.815 36.4948 40.8336 36.5284 40.8336 36.5801C40.8336 36.6322 40.815 36.6653 40.8 36.6874C40.7739 36.721 40.7332 36.7466 40.6776 36.7466H39.665C39.6093 36.7466 39.5687 36.7205 39.5426 36.6874C39.5275 36.6653 39.509 36.6317 39.509 36.5801C39.509 36.5284 39.5275 36.4948 39.5426 36.4727C39.5687 36.4391 39.6093 36.4135 39.665 36.4135H40.0027V35.1896H39.665V35.1891ZM40.1883 34.0097C40.2626 34.0097 40.3404 34.0875 40.3404 34.1803V34.3212C40.3404 34.4216 40.2551 34.4883 40.1547 34.4883H40.0248C39.9134 34.4883 39.8356 34.4176 39.8356 34.3212V34.1803C39.8356 34.084 39.9174 34.0097 40.0248 34.0097H40.1883Z" fill="black"/>
<path d="M41.4733 35.2152L41.7553 34.9739C41.8145 34.9217 41.9148 34.855 42.0744 34.855H42.2972C42.5716 34.855 42.7979 35.0848 42.7979 35.3521V35.4299C42.7979 35.5372 42.7277 35.6155 42.6273 35.6155C42.52 35.6155 42.4643 35.5267 42.4643 35.4299V35.3521C42.4643 35.2633 42.3865 35.1891 42.2972 35.1891H42.0744C42.0593 35.1891 42.0112 35.1891 41.9555 35.2372L41.4733 35.6601V36.5911C41.4733 36.6468 41.4472 36.6874 41.4141 36.7135C41.392 36.7281 41.3584 36.7471 41.3067 36.7471C41.255 36.7471 41.2214 36.7286 41.1993 36.7135C41.1657 36.6874 41.1401 36.6468 41.1401 36.5911V35.0115C41.1401 34.9558 41.1662 34.9152 41.1993 34.8891C41.2214 34.8741 41.255 34.8555 41.3067 34.8555C41.3589 34.8555 41.392 34.8741 41.4141 34.8891C41.4477 34.9152 41.4733 34.9558 41.4733 35.0115V35.2152Z" fill="black"/>
<path d="M44.0814 34.8555C44.2334 34.8555 44.3338 34.9222 44.4005 34.9744L44.545 35.0893C44.6118 35.1414 44.6524 35.2041 44.6825 35.2749C44.7086 35.3381 44.7272 35.4008 44.7272 35.475V36.1311C44.7272 36.2019 44.7051 36.2831 44.675 36.3463C44.6454 36.4055 44.5972 36.4652 44.545 36.5093L44.4005 36.6317C44.3152 36.7025 44.1893 36.7466 44.0814 36.7466H43.7066C43.6063 36.7466 43.4838 36.7095 43.3915 36.6317L43.247 36.5093C43.2023 36.4722 43.1431 36.402 43.1135 36.3423C43.0874 36.2906 43.0654 36.1978 43.0654 36.1311V35.475C43.0654 35.3747 43.1025 35.2894 43.1135 35.2638C43.1396 35.2046 43.1878 35.1379 43.247 35.0898L43.3915 34.9749C43.4658 34.9157 43.5546 34.856 43.7066 34.856H44.0814V34.8555ZM43.7066 35.1891C43.6695 35.1891 43.6213 35.2152 43.6027 35.2297L43.4582 35.3486C43.4322 35.3707 43.399 35.4263 43.399 35.4745V36.1346C43.399 36.2014 43.4362 36.2385 43.4582 36.257L43.6027 36.3794C43.6213 36.398 43.666 36.413 43.7066 36.413H44.0849C44.111 36.413 44.1557 36.4055 44.1888 36.3794L44.3333 36.257C44.3554 36.2385 44.3925 36.2014 44.3925 36.1346V35.4745C44.3925 35.4374 44.3589 35.3707 44.3333 35.3486L44.1888 35.2297C44.1702 35.2152 44.1221 35.1891 44.0849 35.1891H43.7066Z" fill="black"/>
<path d="M45.3604 36.5911C45.3604 36.6468 45.3344 36.6874 45.3012 36.7135C45.2792 36.7281 45.2455 36.7471 45.1939 36.7471C45.1422 36.7471 45.1086 36.7286 45.0865 36.7135C45.0529 36.6874 45.0273 36.6468 45.0273 36.5911V35.0115C45.0273 34.9558 45.0534 34.9152 45.0865 34.8891C45.1086 34.8741 45.1422 34.8555 45.1939 34.8555C45.246 34.8555 45.2792 34.8741 45.3012 34.8891C45.3349 34.9152 45.3604 34.9558 45.3604 35.0115V35.1489L45.5757 35.0045C45.676 34.9378 45.7869 34.856 45.9726 34.856H46.1246C46.2506 34.856 46.388 34.8781 46.5064 35.0155C46.6324 35.164 46.6364 35.3195 46.6439 35.4865L46.6846 36.5655V36.5916C46.6846 36.6473 46.6585 36.6879 46.6254 36.714C46.6033 36.7286 46.5697 36.7476 46.518 36.7476C46.4663 36.7476 46.4327 36.7291 46.4106 36.714C46.3584 36.6734 46.3514 36.6177 46.3514 36.5916L46.3108 35.468C46.3073 35.4163 46.2997 35.3125 46.2405 35.2493C46.2069 35.2157 46.1552 35.1901 46.096 35.1901H45.9886C45.9515 35.1901 45.8958 35.2086 45.8662 35.2197C45.8512 35.2272 45.807 35.2458 45.7548 35.2789L45.3614 35.5382V36.5911H45.3604Z" fill="black"/>
<path d="M47.6911 36.1457C47.7874 36.1457 47.8617 36.2275 47.8617 36.3313V36.5796C47.8617 36.6724 47.806 36.7687 47.6911 36.7687H47.3649C47.2686 36.7687 47.1943 36.687 47.1943 36.5796V36.3313C47.1943 36.224 47.2576 36.1457 47.3649 36.1457H47.6911Z" fill="black"/>
<path d="M48.7271 35.2152L49.0091 34.9739C49.0683 34.9217 49.1687 34.855 49.3282 34.855H49.551C49.8255 34.855 50.0518 35.0848 50.0518 35.3521V35.4299C50.0518 35.5372 49.9815 35.6155 49.8812 35.6155C49.7738 35.6155 49.7181 35.5267 49.7181 35.4299V35.3521C49.7181 35.2633 49.6403 35.1891 49.551 35.1891H49.3282C49.3132 35.1891 49.265 35.1891 49.2093 35.2372L48.7271 35.6601V36.5911C48.7271 36.6468 48.7011 36.6874 48.6679 36.7135C48.6459 36.7281 48.6122 36.7471 48.5606 36.7471C48.5089 36.7471 48.4753 36.7286 48.4532 36.7135C48.4196 36.6874 48.394 36.6468 48.394 36.5911V35.0115C48.394 34.9558 48.4201 34.9152 48.4532 34.8891C48.4753 34.8741 48.5089 34.8555 48.5606 34.8555C48.6127 34.8555 48.6459 34.8741 48.6679 34.8891C48.7016 34.9152 48.7271 34.9558 48.7271 35.0115V35.2152Z" fill="black"/>
<path d="M51.6343 35.011C51.6343 34.9553 51.6604 34.9147 51.6935 34.8886C51.7156 34.8735 51.7492 34.855 51.8009 34.855C51.8526 34.855 51.8862 34.8735 51.9083 34.8886C51.9419 34.9147 51.9675 34.9553 51.9675 35.011V36.5906C51.9675 36.6463 51.9414 36.6869 51.9083 36.713C51.8862 36.7275 51.8526 36.7466 51.8009 36.7466C51.7487 36.7466 51.7156 36.728 51.6935 36.713C51.6599 36.6869 51.6343 36.6463 51.6343 36.5906V36.4531L51.4191 36.5976C51.3187 36.6643 51.2078 36.7461 51.0222 36.7461H50.8701C50.7442 36.7461 50.6067 36.724 50.4883 36.5866C50.3624 36.4381 50.3583 36.2826 50.3508 36.1155L50.3102 35.0366C50.3102 34.9959 50.3137 34.9327 50.3694 34.8881C50.3955 34.8695 50.4326 34.8545 50.4768 34.8545C50.5284 34.8545 50.5621 34.873 50.5841 34.8881C50.6363 34.9287 50.6433 34.9844 50.6433 35.0105L50.684 36.1341C50.6875 36.1863 50.695 36.2901 50.7542 36.3528C50.7878 36.3864 50.8395 36.412 50.8987 36.412H51.0061C51.0432 36.412 51.0989 36.3934 51.1285 36.3824C51.1436 36.3749 51.1877 36.3563 51.2399 36.3232L51.6333 36.0639V35.011H51.6343Z" fill="black"/>
</g>
<path d="M4.65933 24.8977C6.10948 25.395 6.78482 26.3479 6.78482 28.6095L6.78482 39.7866C6.78482 42.0953 7.8685 43.4094 10.2243 43.4094L11.4441 43.4094L11.4441 46.0793L9.76888 46.0793C5.69589 46.0793 3.5704 44.09 3.5704 40.0588L3.5704 28.5623C3.5704 26.9342 2.84795 26.2536 1.53391 26.2536L-3.94059e-06 26.2536L-3.46552e-06 23.5365L1.53915 23.5365C2.85318 23.5365 3.57564 22.856 3.57564 21.2278L3.57564 9.73655C3.57564 5.70544 5.70114 3.71607 9.77413 3.71607L11.4494 3.71607L11.4494 6.38602L10.2296 6.38602C7.87375 6.38602 6.79006 7.70006 6.79006 10.0088L6.79006 21.1859C6.79006 23.4475 6.10948 24.4004 4.65933 24.8977Z" fill="black"/>
<path d="M181.926 24.8977C180.476 24.4004 179.8 23.4476 179.8 21.186L179.8 10.0088C179.8 7.70007 178.717 6.38603 176.361 6.38603L175.141 6.38603L175.141 3.71608L176.816 3.71608C180.889 3.71608 183.015 5.70546 183.015 9.73656L183.015 21.2331C183.015 22.8612 183.737 23.5418 185.051 23.5418L186.585 23.5418L186.585 26.2589L185.046 26.2589C183.732 26.2589 183.009 26.9394 183.009 28.5676L183.009 40.0589C183.009 44.09 180.884 46.0793 176.811 46.0793L175.136 46.0793L175.136 43.4094L176.355 43.4094C178.711 43.4094 179.795 42.0954 179.795 39.7866L179.795 28.6095C179.795 26.3479 180.476 25.3951 181.926 24.8977Z" fill="black"/>
<defs>
<radialGradient id="paint0_radial_1014_149" cx="0" cy="0" r="1" gradientUnits="userSpaceOnUse" gradientTransform="translate(43.6414 25.3241) rotate(-44.9374) scale(32.7696 27.3199)">
<stop stop-color="#E6E4E4"/>
<stop offset="0.802083" stop-color="#939393"/>
</radialGradient>
</defs>
</svg>
