<svg width="53" height="85" viewBox="0 0 53 85" fill="none" xmlns="http://www.w3.org/2000/svg">
<g clip-path="url(#clip0_1013_53)">
<path d="M16.5667 61.2029C16.5667 58.4375 16.7102 56.036 17.0688 54.1438C17.4274 52.2517 18.0011 50.5779 18.7183 49.1224C19.5072 47.667 20.583 46.2115 22.0174 44.8288C23.4517 43.3733 25.3164 41.7723 27.6114 40.0257C29.5478 38.4247 31.1973 36.7509 32.4883 35.0043C33.7792 33.2577 34.7833 31.5111 35.4287 29.619C36.0742 27.7997 36.4328 25.9075 36.4328 23.9426C36.4328 20.6678 35.5004 18.0479 33.7075 16.2286C31.9145 14.3365 29.4044 13.4632 26.1053 13.4632C23.38 13.4632 21.0133 14.2637 19.0769 15.792C17.1405 17.3202 16.1364 19.649 16.0647 22.7055H0.143198L-0.000239268 22.1961C-0.0719578 17.5385 1.00382 13.536 3.22709 10.1884C5.45037 6.84075 8.53427 4.36644 12.4788 2.61986C16.4233 0.873287 20.9416 0 26.177 0C34.5681 0 41.1662 2.11044 45.8996 6.33134C50.633 10.5522 52.9998 16.2286 52.9998 23.4332C52.9998 26.7808 52.3543 29.8373 51.1351 32.6755C49.8441 35.5137 48.1229 38.2063 45.8996 40.7534C43.6763 43.3005 41.0945 45.7748 38.2257 48.3219C36.7914 49.5591 35.7156 50.7235 34.9984 51.8878C34.2812 53.0522 33.7792 54.2894 33.4923 55.8176C33.2772 57.2731 33.1337 59.0925 33.1337 61.2757H16.5667V61.2029ZM16.5667 85V70.2997H33.1337V85H16.5667Z" fill="white"/>
</g>
<defs>
<clipPath id="clip0_1013_53">
<rect width="53" height="85" fill="white"/>
</clipPath>
</defs>
</svg>
